<svg viewBox="0 0 34 34" fill="none" xmlns="http://www.w3.org/2000/svg">
    <path fill-rule="evenodd" clip-rule="evenodd" transform="translate(1px, 1px)" d="M16.0005 19.3865C13.7835 19.3865 11.9815 17.5764 11.9815 15.3506C11.9815 13.1249 13.7835 11.3148 16.0005 11.3148C18.2174 11.3148 20.0194 13.1249 20.0194 15.3506C20.0194 17.5764 18.2174 19.3865 16.0005 19.3865ZM19.7764 20.0655C20.6026 19.4017 21.2398 18.5288 21.6231 17.5358C22.0063 16.5428 22.122 15.465 21.9583 14.4122C21.5613 11.7657 19.3694 9.64797 16.7224 9.33923C13.0705 8.91244 9.97258 11.7678 9.97258 15.3506C9.97258 17.2576 10.8526 18.9566 12.2245 20.0655C8.8526 21.3378 6.39065 24.3253 6.00466 28.3571C5.99116 28.4985 6.00706 28.6413 6.05134 28.7761C6.09561 28.911 6.16728 29.035 6.26177 29.1403C6.35626 29.2456 6.47149 29.3298 6.6001 29.3876C6.7287 29.4455 6.86785 29.4756 7.00864 29.4761C7.25543 29.4781 7.49406 29.3871 7.67775 29.2208C7.86144 29.0545 7.97695 28.8249 8.00162 28.5771C8.40461 24.0741 11.8375 21.4044 16.0005 21.4044C20.1634 21.4044 23.5963 24.0741 23.9993 28.5771C24.024 28.8249 24.1395 29.0545 24.3232 29.2208C24.5069 29.3871 24.7455 29.4781 24.9923 29.4761C25.5883 29.4761 26.0523 28.9534 25.9953 28.3571C25.6103 24.3253 23.1483 21.3378 19.7754 20.0655" fill="currentColor"/>
    <circle cx="16" cy="16" r="15.25" stroke="currentColor" transform="translate(1px, 1px)" stroke-width="2"/>
</svg>
