<svg viewBox="0 0 17 17" fill="none" xmlns="http://www.w3.org/2000/svg">
    <path d="M4.67563 3.40046C4.42342 3.40046 4.17688 3.47525 3.96718 3.61536C3.75748 3.75548 3.59404 3.95464 3.49753 4.18764C3.40101 4.42065 3.37576 4.67704 3.42496 4.9244C3.47416 5.17176 3.59561 5.39897 3.77395 5.57731C3.95228 5.75564 4.1795 5.87709 4.42685 5.92629C4.67421 5.9755 4.93061 5.95024 5.16361 5.85373C5.39662 5.75721 5.59577 5.59377 5.73589 5.38407C5.87601 5.17437 5.95079 4.92783 5.95079 4.67563C5.95079 4.33743 5.81645 4.01309 5.57731 3.77395C5.33817 3.53481 5.01382 3.40046 4.67563 3.40046ZM16.2541 7.40449L9.10471 0.246547C9.02527 0.167757 8.93107 0.105422 8.82749 0.0631169C8.72392 0.0208115 8.61301 -0.000632635 8.50113 1.4209e-05H0.850126C0.624662 1.4209e-05 0.408433 0.0895792 0.249006 0.249006C0.0895792 0.408433 1.4209e-05 0.624662 1.4209e-05 0.850126V8.50113C-0.000632635 8.61301 0.0208115 8.72392 0.0631169 8.82749C0.105422 8.93107 0.167757 9.02527 0.246547 9.10471L7.40449 16.2541C7.88267 16.7317 8.53088 17 9.20672 17C9.88256 17 10.5308 16.7317 11.009 16.2541L16.2541 11.0515C16.7317 10.5733 17 9.92507 17 9.24923C17 8.57339 16.7317 7.92518 16.2541 7.44699V7.40449ZM15.0555 9.8018L9.8018 15.047C9.64252 15.2053 9.42706 15.2942 9.20247 15.2942C8.97788 15.2942 8.76242 15.2053 8.60314 15.047L1.70024 8.15258V1.70024H8.15258L15.0555 8.60314C15.1343 8.68258 15.1966 8.77678 15.2389 8.88036C15.2812 8.98393 15.3027 9.09484 15.302 9.20672C15.3011 9.42974 15.2125 9.64346 15.0555 9.8018Z" fill="currentColor"/>
</svg>
