<svg viewBox="0 0 27 27" fill="none" xmlns="http://www.w3.org/2000/svg">
<path d="M2.29102 23.6619H24.922" stroke="currentColor" stroke-width="1.5" stroke-linecap="round" stroke-linejoin="round"/>
<path d="M3.39667 6.60677L3.60465 11.9712C3.63236 12.6859 3.88974 13.3756 4.33855 13.938C4.78737 14.5003 5.4037 14.9053 6.09604 15.0927L23.7091 19.8617L23.9935 16.8219C24.0672 16.0334 23.8562 15.2407 23.3985 14.5872C22.9408 13.9336 22.2665 13.4623 21.4976 13.2582L16.314 11.8829L13.3383 5.98897L11.6029 5.28534C11.4731 5.2327 11.3325 5.21342 11.1942 5.22928C11.0559 5.24514 10.9242 5.29562 10.8113 5.37608C10.6984 5.45654 10.608 5.56438 10.5484 5.68967C10.4887 5.81496 10.4618 5.95365 10.47 6.09298L10.7234 10.3778L7.48655 9.4755L6.29245 6.53047L4.5304 5.81602C4.4019 5.76392 4.26286 5.74449 4.12585 5.75949C3.98883 5.77449 3.85815 5.82344 3.74563 5.90192C3.6331 5.98041 3.54227 6.08595 3.48135 6.20901C3.42042 6.33207 3.39132 6.46878 3.39667 6.60677Z" stroke="currentColor" stroke-width="1.5" stroke-linecap="round" stroke-linejoin="round"/>
</svg>
