<svg viewBox="0 0 32 13" fill="none" xmlns="http://www.w3.org/2000/svg">
    <path d="M18.1943 5.97192V11.9436C18.1943 12.102 18.1314 12.2539 18.0194 12.3659C17.9074 12.4779 17.7556 12.5408 17.5972 12.5408C17.4388 12.5408 17.2869 12.4779 17.1749 12.3659C17.0629 12.2539 17 12.102 17 11.9436V5.97192C17 5.81354 17.0629 5.66165 17.1749 5.54966C17.2869 5.43766 17.4388 5.37475 17.5972 5.37475C17.7556 5.37475 17.9074 5.43766 18.0194 5.54966C18.1314 5.66165 18.1943 5.81354 18.1943 5.97192Z" fill="currentColor"/>
    <path d="M17 5.97234H31.9293V11.3469H17V5.97234Z" fill="currentColor"/>
    <path d="M18.1934 1.1944V4.77743H19.3877V4.18026C19.3877 4.02188 19.4506 3.86999 19.5626 3.758C19.6746 3.64601 19.8265 3.58309 19.9849 3.58309H23.2693C23.4277 3.58309 23.5796 3.64601 23.6916 3.758C23.8036 3.86999 23.8665 4.02188 23.8665 4.18026V4.78221H25.0608V4.18026C25.0608 4.02188 25.1237 3.86999 25.2357 3.758C25.3477 3.64601 25.4996 3.58309 25.658 3.58309H28.9424C29.1008 3.58309 29.2527 3.64601 29.3647 3.758C29.4767 3.86999 29.5396 4.02188 29.5396 4.18026V4.77743H30.734V1.1944C30.734 0.877644 30.6081 0.573859 30.3841 0.349876C30.1602 0.125893 29.8564 6.10352e-05 29.5396 6.10352e-05H19.3877C19.0709 6.10352e-05 18.7672 0.125893 18.5432 0.349876C18.3192 0.573859 18.1934 0.877644 18.1934 1.1944Z" fill="currentColor"/>
    <path d="M31.9287 5.97192V11.9436C31.9287 12.102 31.8658 12.2539 31.7538 12.3659C31.6418 12.4779 31.4899 12.5408 31.3315 12.5408C31.1732 12.5408 31.0213 12.4779 30.9093 12.3659C30.7973 12.2539 30.7344 12.102 30.7344 11.9436V5.97192C30.7344 5.81354 30.7973 5.66165 30.9093 5.54966C31.0213 5.43766 31.1732 5.37475 31.3315 5.37475C31.4899 5.37475 31.6418 5.43766 31.7538 5.54966C31.8658 5.66165 31.9287 5.81354 31.9287 5.97192Z" fill="currentColor"/>
    <path d="M1.19434 5.97192V11.9436C1.19434 12.102 1.13143 12.2539 1.01944 12.3659C0.907444 12.4779 0.755551 12.5408 0.597171 12.5408C0.438792 12.5408 0.286899 12.4779 0.174907 12.3659C0.0629161 12.2539 0 12.102 0 11.9436V5.97192C0 5.81354 0.0629161 5.66165 0.174907 5.54966C0.286899 5.43766 0.438792 5.37475 0.597171 5.37475C0.755551 5.37475 0.907444 5.43766 1.01944 5.54966C1.13143 5.66165 1.19434 5.81354 1.19434 5.97192Z" fill="currentColor"/>
    <path d="M0 5.97234H14.9293V11.3469H0V5.97234Z" fill="currentColor"/>
    <path d="M1.19336 1.1944V4.77743H2.3877V4.18026C2.3877 4.02188 2.45062 3.86999 2.56261 3.758C2.6746 3.64601 2.82649 3.58309 2.98487 3.58309H6.26932C6.4277 3.58309 6.57959 3.64601 6.69158 3.758C6.80357 3.86999 6.86649 4.02188 6.86649 4.18026V4.78221H8.06083V4.18026C8.06083 4.02188 8.12375 3.86999 8.23574 3.758C8.34773 3.64601 8.49962 3.58309 8.658 3.58309H11.9424C12.1008 3.58309 12.2527 3.64601 12.3647 3.758C12.4767 3.86999 12.5396 4.02188 12.5396 4.18026V4.77743H13.734V1.1944C13.734 0.877644 13.6081 0.573859 13.3841 0.349876C13.1602 0.125893 12.8564 6.10352e-05 12.5396 6.10352e-05H2.3877C2.07094 6.10352e-05 1.76716 0.125893 1.54317 0.349876C1.31919 0.573859 1.19336 0.877644 1.19336 1.1944Z" fill="currentColor"/>
    <path d="M14.9287 5.97192V11.9436C14.9287 12.102 14.8658 12.2539 14.7538 12.3659C14.6418 12.4779 14.4899 12.5408 14.3315 12.5408C14.1732 12.5408 14.0213 12.4779 13.9093 12.3659C13.7973 12.2539 13.7344 12.102 13.7344 11.9436V5.97192C13.7344 5.81354 13.7973 5.66165 13.9093 5.54966C14.0213 5.43766 14.1732 5.37475 14.3315 5.37475C14.4899 5.37475 14.6418 5.43766 14.7538 5.54966C14.8658 5.66165 14.9287 5.81354 14.9287 5.97192Z" fill="currentColor"/>
</svg>
