<svg xmlns="http://www.w3.org/2000/svg"  viewBox="0 0 11 17" fill="none">
<path d="M0 3.06464C0.00292301 2.55904 0.0961657 2.05789 0.27546 1.58411C0.442358 1.12072 0.750891 0.719627 1.15864 0.435965C1.5664 0.152303 2.05335 3.11056e-06 2.55256 3.11056e-06C3.05177 3.11056e-06 3.53872 0.152303 3.94647 0.435965C4.35423 0.719627 4.66276 1.12072 4.82966 1.58411C5.00896 2.05789 5.1022 2.55904 5.10512 3.06464C5.10512 4.86269 4.46005 5.25867 3.91685 5.84489C3.50509 6.28924 3.14848 6.78775 3.15774 7.58174C3.18769 10.1514 3.92667 12.9535 3.47928 15.9504C3.36069 16.7448 3.03191 17 2.55258 17C2.07321 17 1.74442 16.7448 1.62584 15.9504C1.17845 12.9535 1.91743 10.1514 1.94739 7.58174C1.95664 6.78775 1.60003 6.28924 1.18827 5.84489C0.645061 5.25867 0 4.86269 0 3.06464ZM6.72384 2.13312L6.91037 0.249465C6.91713 0.181157 6.94946 0.117774 7.00107 0.0716592C7.05268 0.0255443 7.11987 -3.66088e-07 7.18955 0H7.20354C7.27794 -1.04851e-06 7.34929 0.0291062 7.4019 0.0809187C7.45451 0.132731 7.48406 0.203004 7.48406 0.27628V3.67373C7.47633 3.74978 7.49908 3.82581 7.54745 3.88558C7.59582 3.94536 7.66599 3.98416 7.74299 3.9937C7.81999 3.98416 7.89015 3.94536 7.93853 3.88558C7.9869 3.82581 8.00965 3.74978 8.00192 3.67373V0.276282C8.00212 0.203134 8.03176 0.13305 8.08435 0.0813961C8.13693 0.0297422 8.20817 0.000735028 8.28243 0.000735028C8.3567 0.000735028 8.42794 0.0297422 8.48052 0.0813961C8.53311 0.13305 8.56275 0.203134 8.56295 0.276282V3.67373C8.55522 3.74978 8.57796 3.82581 8.62633 3.88558C8.6747 3.94536 8.74487 3.98416 8.82187 3.9937C8.89887 3.98415 8.96904 3.94536 9.01741 3.88558C9.06578 3.82581 9.08852 3.74978 9.08079 3.67373V0.276282C9.08099 0.203134 9.11063 0.13305 9.16322 0.0813961C9.2158 0.0297422 9.28704 0.000735028 9.36131 0.000735028C9.43557 0.000735028 9.50681 0.0297422 9.55939 0.0813961C9.61198 0.13305 9.64162 0.203134 9.64182 0.276282V3.67373C9.63409 3.74978 9.65684 3.82581 9.70521 3.88558C9.75358 3.94536 9.82375 3.98415 9.90075 3.9937C9.97775 3.98416 10.0479 3.94536 10.0963 3.88558C10.1447 3.82581 10.1674 3.74979 10.1597 3.67373V0.276282C10.1597 0.24 10.1669 0.204073 10.181 0.170553C10.1951 0.137033 10.2158 0.106576 10.2418 0.0809206C10.2679 0.0552654 10.2988 0.0349146 10.3328 0.0210302C10.3669 0.00714582 10.4034 -2.59569e-07 10.4402 0H10.4542C10.5239 3.87094e-06 10.5911 0.0255503 10.6427 0.0716646C10.6943 0.117779 10.7266 0.18116 10.7334 0.249465L10.9199 2.13313C11.1144 4.09717 10.9814 4.89693 10.2241 5.65116C9.97381 5.87401 9.77473 6.14693 9.64018 6.45166C9.50562 6.75639 9.43869 7.08591 9.44386 7.41817C9.47466 10.0324 10.2342 12.8832 9.77437 15.9322C9.65266 16.7391 9.31454 17 8.82187 17C8.32919 17 7.99126 16.7404 7.86937 15.9322C7.40954 12.8832 8.16908 10.0324 8.19987 7.41818C8.20504 7.08591 8.13811 6.75639 8.00356 6.45166C7.869 6.14693 7.66993 5.87401 7.41965 5.65116C6.66233 4.89692 6.52934 4.09716 6.72384 2.13312Z" fill="currentColor"/>
</svg>