<svg viewBox="0 0 26 19" fill="none" xmlns="http://www.w3.org/2000/svg">
    <path d="M2.17676 17.7266H24.8078" stroke="currentColor" stroke-width="1.5" stroke-linecap="round" stroke-linejoin="round"/>
    <path d="M1.2643 9.55183L5.20456 13.198C5.72954 13.6837 6.39925 13.9895 7.11425 14.0698C7.82925 14.15 8.55142 14.0006 9.17352 13.6436L25 4.56136L23.0517 2.2109C22.5462 1.60113 21.8365 1.18987 21.0507 1.0514C20.2649 0.912929 19.4549 1.05638 18.7669 1.45584L14.129 4.14866L7.85724 2.08517L6.13262 2.81472C6.00359 2.8693 5.89056 2.95506 5.80395 3.0641C5.71733 3.17314 5.65992 3.30195 5.63701 3.43865C5.6141 3.57535 5.62642 3.71554 5.67283 3.84631C5.71925 3.97707 5.79827 4.0942 5.90262 4.18689L9.11159 7.03755L6.18478 8.68834L3.25797 7.45025L1.50682 8.19101C1.37912 8.24503 1.26706 8.32961 1.18078 8.4371C1.0945 8.54459 1.03672 8.67161 1.01265 8.80667C0.988575 8.94173 0.998978 9.08059 1.04291 9.21069C1.08685 9.34079 1.16294 9.45803 1.2643 9.55183Z" stroke="currentColor" stroke-width="1.5" stroke-linecap="round" stroke-linejoin="round"/>
</svg>
