<svg viewBox="0 0 30 48" fill="none" xmlns="http://www.w3.org/2000/svg">
<g clip-path="url(#clip0_0_1)">
<rect width="1440" height="2800" transform="translate(-315 -109)" fill="none"/>
<g filter="url(#filter0_d_0_1)">
<rect x="-315" y="-29" width="1440" height="101" fill="none"/>
</g>
<path fill-rule="evenodd" clip-rule="evenodd" d="M19.2329 0.0338172L4.58313 1.66756C1.74508 1.98432 -0.300114 4.42634 0.0366058 7.09619L4.64616 43.6876C4.98288 46.3574 7.57877 48.2814 10.4168 47.9662L25.0682 46.3324C27.9063 46.0157 29.9515 43.5737 29.6164 40.9038L25.0068 4.31243C24.6701 1.64259 22.0742 -0.281384 19.2362 0.0338172H19.2329Z" fill="white"/>
<path fill-rule="evenodd" clip-rule="evenodd" d="M22.6138 3.59449L2.18349 5.87268C2.14368 5.87736 2.11548 5.91168 2.1188 5.94913L6.9075 43.9574C6.91248 43.9948 6.94897 44.0213 6.98878 44.0167L27.4208 41.7385C27.4606 41.7338 27.4888 41.6995 27.4838 41.662L22.6968 3.65379C22.6918 3.61634 22.6553 3.58981 22.6155 3.59449H22.6138Z" fill="#15919B"/>
<path fill-rule="evenodd" clip-rule="evenodd" d="M15.8377 1.57628L8.26735 2.42046C8.06167 2.44386 7.91405 2.62019 7.93893 2.81368C7.96381 3.00717 8.15124 3.14604 8.35692 3.12264L15.9273 2.27846C16.133 2.25506 16.2806 2.07873 16.2574 1.88524C16.2325 1.69175 16.045 1.55288 15.8394 1.57628H15.8377Z" fill="#15919B"/>
<path fill-rule="evenodd" clip-rule="evenodd" d="M17.3135 43.758C16.6168 43.836 16.1192 44.429 16.2021 45.0843C16.2851 45.7397 16.9171 46.2078 17.6121 46.1298C18.3087 46.0518 18.8063 45.4588 18.7234 44.8034C18.6405 44.1481 18.0101 43.68 17.3135 43.758Z" fill="#15919B"/>
<path d="M21.0488 19.5343L22.6953 32.6017L8.80465 34.1506L7.15813 21.0832L21.0488 19.5343Z" fill="white"/>
<path d="M14.9736 20.2004L16.6201 33.2678L14.879 33.4619L13.2325 20.3946L14.9736 20.2004Z" fill="#15919B"/>
<path d="M9.98639 20.3147C9.66294 20.2647 9.36105 20.2008 9.07907 20.1274C8.03243 19.8544 7.28269 19.4393 6.79835 18.9836C6.52964 18.7309 6.33722 18.4625 6.2178 18.1956C6.09505 17.9226 6.04861 17.6495 6.07184 17.3936C6.09506 17.1299 6.19126 16.888 6.35381 16.6836C6.51471 16.4823 6.74029 16.3154 7.02725 16.1999C7.45188 16.0283 8.01916 15.9752 8.70752 16.1C9.09732 16.1718 9.52527 16.2998 9.98639 16.4964V15.8457C9.57669 15.6881 9.18855 15.5789 8.82695 15.5133C8.00589 15.3635 7.31255 15.4353 6.77844 15.6506C6.38367 15.8098 6.07017 16.0423 5.84459 16.3263C5.61071 16.6212 5.47138 16.9692 5.43821 17.3452C5.40669 17.6932 5.46972 18.063 5.63393 18.4281C5.78488 18.7652 6.02207 19.0976 6.34884 19.405C6.90616 19.9293 7.75045 20.4005 8.91155 20.7032C9.24329 20.789 9.60157 20.8624 9.98805 20.9185V20.3131L9.98639 20.3147ZM9.98639 19.9729C9.8371 19.9495 9.69446 19.923 9.55513 19.8934C8.3874 19.6484 7.56799 19.2208 7.05711 18.7387C6.83982 18.5327 6.68058 18.3205 6.57774 18.1114C6.46163 17.8742 6.41519 17.6386 6.43343 17.4232C6.45168 17.2235 6.52964 17.0363 6.66234 16.8755C6.78674 16.7257 6.95758 16.6025 7.17156 16.5151C7.57131 16.3544 8.11039 16.3138 8.7689 16.4558C9.13547 16.5338 9.54185 16.6696 9.98639 16.8724V17.545C9.47551 17.2859 9.02102 17.1237 8.62625 17.0378C8.10873 16.927 7.70401 16.9504 7.41871 17.0644C7.30757 17.1096 7.21966 17.1705 7.1616 17.2422C7.10687 17.3078 7.0737 17.3874 7.06706 17.4716C7.05711 17.5886 7.08531 17.7197 7.15331 17.8602C7.2263 18.0084 7.34241 18.1629 7.50662 18.3174C7.9412 18.7262 8.65444 19.0929 9.69114 19.3113C9.78568 19.3316 9.88521 19.3503 9.98473 19.3675V19.9729H9.98639ZM11.2752 24.4435C11.2785 24.431 11.2802 24.4185 11.2818 24.4045C11.3698 23.8958 11.5439 23.3543 11.7828 22.7941C12.0465 22.1762 12.3899 21.538 12.788 20.9029C12.8211 20.8546 12.8394 20.7953 12.8377 20.7329C12.8311 20.5675 12.6851 20.4395 12.5093 20.4457C11.5555 20.4801 10.7162 20.4286 9.98805 20.3147V20.9201C10.5835 21.0075 11.242 21.0543 11.9685 21.0527C11.67 21.5645 11.4062 22.0748 11.1939 22.5726C10.9352 23.1796 10.7461 23.7725 10.6515 24.3343V24.3483C10.62 24.5527 10.6781 24.7509 10.7992 24.9054C10.9219 25.0645 11.111 25.18 11.3333 25.2128C11.5555 25.2455 11.7712 25.1909 11.9403 25.0739C12.1095 24.9584 12.2306 24.7821 12.2671 24.573C12.3517 24.0737 12.5342 23.5307 12.7913 22.9627C13.0019 22.4961 13.2623 22.0155 13.5576 21.5302V20.4192C13.5277 20.4395 13.5029 20.466 13.4813 20.4972L13.4083 20.6049C13.3287 20.7251 13.3818 20.6424 13.3353 20.7126C12.8875 21.3945 12.501 22.0748 12.2057 22.727C11.9304 23.3372 11.733 23.9286 11.6401 24.4778C11.6318 24.5262 11.6053 24.5652 11.5671 24.5902C11.534 24.6136 11.4925 24.6245 11.4477 24.6229C11.4361 24.6214 11.4245 24.6183 11.4129 24.6183C11.3714 24.6089 11.3349 24.5839 11.31 24.5527C11.2852 24.5215 11.2719 24.4825 11.2752 24.4404V24.4435ZM9.98639 16.4964C10.2651 16.615 10.5553 16.7585 10.8572 16.9302C11.31 17.1861 11.796 17.4919 12.2953 17.8368C12.71 18.1239 13.1346 18.4359 13.5559 18.7699V17.9959C13.259 17.7697 12.9621 17.5559 12.6718 17.3546C12.1527 16.9973 11.6501 16.6805 11.1856 16.4168C10.7676 16.1796 10.3662 15.9908 9.98639 15.8441V16.4948V16.4964ZM9.98639 16.8724C10.207 16.9723 10.4359 17.0893 10.6731 17.2235C11.1259 17.4794 11.6169 17.7899 12.1245 18.141C12.5939 18.4672 13.0782 18.8292 13.5576 19.2193V19.7623L13.541 19.7857C13.4912 19.8544 13.4548 19.9058 13.4382 19.9308C13.3818 20.0104 13.2922 20.0572 13.1977 20.0634C11.9387 20.1602 10.8738 20.1149 9.98805 19.9729V19.3675C10.7859 19.5048 11.7546 19.5579 12.909 19.4845C12.5209 19.1771 12.1311 18.8885 11.7496 18.6248C11.2619 18.2862 10.7859 17.9866 10.3463 17.7369C10.2236 17.6682 10.1042 17.6043 9.98805 17.545V16.8724H9.98639ZM13.5559 18.7699C13.6223 18.8229 13.6903 18.876 13.7566 18.9306C13.7633 18.9353 13.7683 18.94 13.7749 18.9446C13.9159 19.0429 14.1149 19.0149 14.2194 18.8822C14.6125 18.3845 15.0272 17.8945 15.4469 17.4279C15.8897 16.9364 16.3359 16.473 16.7705 16.0501C17.0641 15.7645 17.3511 15.5258 17.6297 15.3308V14.6052C17.2068 14.8564 16.7639 15.195 16.3127 15.635C15.8665 16.0704 15.4104 16.5432 14.9625 17.0409C14.6076 17.4342 14.2559 17.8461 13.9142 18.2705C13.7948 18.1769 13.677 18.0849 13.5576 17.9944V18.7683L13.5559 18.7699ZM17.6297 19.5173C17.0774 19.728 16.4504 19.9136 15.7438 20.0619C15.6841 20.0712 15.626 20.0962 15.5779 20.1383C15.4502 20.2507 15.4419 20.4395 15.5613 20.5612C16.0772 21.0839 16.5516 21.6254 16.9596 22.1715C17.2101 22.5086 17.4357 22.8472 17.6297 23.1858V22.0342C17.5816 21.9656 17.5319 21.8969 17.4804 21.8283C17.1504 21.3851 16.7821 20.9497 16.389 20.5284C16.8352 20.4192 17.2482 20.2944 17.6297 20.1586V19.5173ZM17.6297 23.902V24.5199C17.5617 24.5121 17.4954 24.4965 17.4323 24.4747C17.2366 24.4045 17.0691 24.264 16.9779 24.069C16.734 23.5587 16.3973 23.036 15.9942 22.518C15.558 21.9562 15.0488 21.4023 14.5014 20.8749L14.3886 20.8889C14.2775 20.9014 14.1912 20.9123 14.1282 20.9185H14.1149C14.0834 20.9248 14.0237 20.931 13.9474 20.9388H13.9341C13.9341 20.9388 13.9474 20.9201 13.8777 21.0278C13.7683 21.1963 13.6604 21.3633 13.5593 21.5318V20.4208C13.6057 20.388 13.6604 20.3677 13.7168 20.363C13.7434 20.3599 13.7998 20.3537 13.8777 20.3459C13.9109 20.3428 13.9607 20.3365 14.0403 20.3272C14.0469 20.3272 14.0536 20.3272 14.0585 20.3256C14.1713 20.3131 14.2559 20.3037 14.3123 20.2975C14.372 20.2897 14.4599 20.2788 14.5744 20.2632C14.6839 20.2491 14.7867 20.2881 14.8547 20.3584L14.9211 20.4223C15.5033 20.981 16.0473 21.5692 16.5101 22.1653C16.9364 22.7146 17.298 23.2732 17.5617 23.8271C17.5767 23.8599 17.6032 23.8864 17.633 23.9036L17.6297 23.902ZM13.5559 19.2208V19.7638L13.6438 19.6421C13.7334 19.5189 13.7119 19.3488 13.5891 19.2474L13.5559 19.2208ZM17.6297 19.1537C16.9082 19.4408 16.0407 19.6827 15.0123 19.8512C14.9028 19.8684 14.7967 19.8309 14.727 19.7607C14.6938 19.7311 14.659 19.6983 14.6175 19.6624C14.5213 19.5766 14.513 19.5672 14.4964 19.5548C14.3787 19.4502 14.3637 19.2817 14.4566 19.1615C14.8547 18.6528 15.271 18.1582 15.694 17.687C16.1385 17.1923 16.5897 16.7226 17.0309 16.292C17.2366 16.0907 17.4373 15.9159 17.6297 15.7645V16.5713C17.5833 16.615 17.5352 16.6602 17.4887 16.7055C17.0591 17.1236 16.6163 17.584 16.1784 18.0724C15.8499 18.4375 15.5248 18.8182 15.2113 19.2083C16.175 19.0305 16.9745 18.7855 17.6297 18.5015V19.1537ZM17.6297 15.3308C17.8918 15.1466 18.1456 15.0015 18.3878 14.8907C18.9285 14.6442 19.4112 14.5708 19.806 14.627C20.0995 14.6691 20.3484 14.7752 20.5408 14.9313C20.7415 15.0936 20.8874 15.312 20.9704 15.5679C21.0483 15.8114 21.0682 16.0907 21.0168 16.3903C20.9671 16.6805 20.8526 16.9879 20.6635 17.3C20.3202 17.8664 19.723 18.4516 18.8174 18.9634C18.4674 19.1615 18.0726 19.3472 17.6297 19.5173V20.1586C18.202 19.9542 18.7046 19.7248 19.1441 19.4767C20.151 18.9072 20.8244 18.2425 21.2175 17.5949C21.4448 17.2204 21.5841 16.8428 21.6455 16.4839C21.7118 16.0938 21.6853 15.724 21.5791 15.3947C21.4614 15.028 21.249 14.7144 20.9571 14.4788C20.6718 14.2478 20.3168 14.0918 19.9005 14.0341C19.3846 13.9607 18.7759 14.0497 18.1108 14.3524C17.9532 14.4242 17.7923 14.5084 17.6281 14.6052V15.3308H17.6297ZM17.6297 23.1858C17.721 23.345 17.8056 23.5057 17.8819 23.6648C17.8868 23.6773 17.8918 23.6883 17.8984 23.6992C17.9134 23.7382 17.9101 23.7803 17.8951 23.8178C17.8802 23.8552 17.852 23.8864 17.8138 23.9067C17.8039 23.9098 17.7939 23.9145 17.7856 23.9192C17.7442 23.9317 17.6994 23.9301 17.6596 23.9161C17.6496 23.913 17.6397 23.9083 17.6297 23.902V24.5199C17.7707 24.5356 17.9183 24.5168 18.0577 24.4575H18.061C18.2667 24.3686 18.4143 24.2125 18.4889 24.03C18.5636 23.8474 18.5636 23.6368 18.4707 23.4417C18.2468 22.9705 17.9615 22.5008 17.6297 22.0342V23.1858ZM17.6297 15.763C17.9084 15.5445 18.1738 15.3744 18.4226 15.2496C18.9335 14.9921 19.3846 14.911 19.7545 14.9625H19.7678C19.9768 14.9968 20.1559 15.0764 20.3003 15.1934C20.4529 15.3167 20.5623 15.479 20.6237 15.6678C20.6917 15.88 20.7033 16.1234 20.6519 16.3856C20.6055 16.6196 20.5059 16.8709 20.35 17.1268C19.9901 17.7213 19.3349 18.3314 18.3181 18.8432C18.1058 18.9509 17.8769 19.0539 17.6297 19.1506V18.4984C17.7657 18.4391 17.8951 18.3782 18.0195 18.3158C18.9202 17.8617 19.4908 17.3359 19.7977 16.8303C19.9171 16.6321 19.9917 16.4449 20.0266 16.2732C20.0597 16.1063 20.0548 15.958 20.0166 15.8379C19.9917 15.7583 19.9469 15.6928 19.8872 15.6444C19.8308 15.5991 19.7562 15.5664 19.6683 15.5539H19.66C19.4195 15.518 19.1043 15.582 18.7245 15.7739C18.3961 15.9393 18.0295 16.1983 17.6314 16.5666V15.7599L17.6297 15.763Z" fill="#15919B"/>
<path d="M10.0654 16.2018C8.72185 15.6401 7.63706 15.6291 6.90391 15.9256C6.21223 16.2049 5.81248 16.7386 5.75608 17.3706C5.703 17.9588 5.9601 18.6173 6.57383 19.1947C7.25058 19.8313 8.39177 20.3884 10.0654 20.6287V19.6846C8.72351 19.4724 7.8162 19.0324 7.28375 18.5299C6.89064 18.1601 6.72311 17.7731 6.75296 17.4486C6.77785 17.1677 6.96694 16.9243 7.29868 16.7916C7.87425 16.5591 8.8164 16.6278 10.0671 17.2457V16.2018H10.0654ZM10.9644 24.3814C10.9213 24.6373 11.1087 24.8792 11.3808 24.9198C11.6545 24.9603 11.9099 24.784 11.953 24.5281C12.1371 23.4327 12.7641 22.1532 13.6068 20.8721C13.6532 20.8003 13.7013 20.7301 13.7494 20.6583C13.8572 20.6474 13.9667 20.6349 14.0778 20.6224C14.2619 20.6021 14.4411 20.5819 14.6169 20.5569L14.6932 20.6287C15.788 21.6788 16.7384 22.832 17.2708 23.9461C17.3256 24.0631 17.4251 24.1474 17.5412 24.1911V22.4497C17.0602 21.735 16.4597 21.0266 15.7963 20.3556C16.4398 20.2214 17.0204 20.0576 17.5412 19.8703V18.8639C16.8346 19.1479 15.9804 19.3882 14.9603 19.5551C14.879 19.4818 14.7961 19.4084 14.7148 19.3351C15.5226 18.3021 16.4116 17.3237 17.2609 16.4967C17.3554 16.4047 17.4483 16.3173 17.5412 16.2361V15.0222C17.2178 15.239 16.8844 15.5106 16.5443 15.8414C15.6868 16.6777 14.7878 17.6623 13.9667 18.7031C12.9549 17.8839 11.9215 17.1802 11.0241 16.6715C10.6924 16.4827 10.3723 16.3266 10.0671 16.1987V17.2426C10.2114 17.3144 10.359 17.3924 10.5116 17.4782C11.3857 17.9729 12.3976 18.6641 13.3845 19.4709C13.3132 19.5676 13.2435 19.6659 13.1738 19.7642C11.9514 19.8578 10.9213 19.8157 10.0671 19.6815V20.6255C10.7853 20.7285 11.6014 20.7738 12.522 20.741C11.7357 21.9987 11.1552 23.2595 10.9661 24.3799L10.9644 24.3814ZM17.5396 24.1926C17.6606 24.2379 17.8 24.2394 17.9294 24.1848C18.1815 24.0787 18.2943 23.801 18.1815 23.5638C18.0057 23.194 17.7884 22.821 17.5396 22.4512V24.1926ZM17.5396 19.8719C19.331 19.229 20.4108 18.3193 20.9399 17.4486C21.3695 16.7417 21.4541 16.0395 21.275 15.4825C21.0759 14.8677 20.5733 14.4323 19.8535 14.3309C19.2248 14.242 18.4237 14.4292 17.5396 15.0237V16.2377C18.4353 15.4481 19.1867 15.186 19.7075 15.2593C20.0177 15.303 20.235 15.4903 20.3212 15.7555C20.4257 16.0785 20.3594 16.5123 20.0741 16.982C19.6727 17.6436 18.8665 18.3333 17.5396 18.8654V19.8719Z" fill="white"/>
<path d="M21.7682 25.2398L21.9746 26.8777L8.08395 28.4266L7.87757 26.7887L21.7682 25.2398Z" fill="#15919B"/>
</g>
<defs>
<filter id="filter0_d_0_1" x="-326" y="-40" width="1468" height="129" filterUnits="userSpaceOnUse" color-interpolation-filters="sRGB">
<feFlood flood-opacity="0" result="BackgroundImageFix"/>
<feColorMatrix in="SourceAlpha" type="matrix" values="0 0 0 0 0 0 0 0 0 0 0 0 0 0 0 0 0 0 127 0" result="hardAlpha"/>
<feOffset dx="3" dy="3"/>
<feGaussianBlur stdDeviation="7"/>
<feComposite in2="hardAlpha" operator="out"/>
<feColorMatrix type="matrix" values="0 0 0 0 0.0823529 0 0 0 0 0.568627 0 0 0 0 0.607843 0 0 0 0.17 0"/>
<feBlend mode="normal" in2="BackgroundImageFix" result="effect1_dropShadow_0_1"/>
<feBlend mode="normal" in="SourceGraphic" in2="effect1_dropShadow_0_1" result="shape"/>
</filter>
<clipPath id="clip0_0_1">
<rect width="1440" height="2800" fill="white" transform="translate(-315 -109)"/>
</clipPath>
</defs>
</svg>
