<svg viewBox="0 0 12 13" fill="none" xmlns="http://www.w3.org/2000/svg">
    <g id="Excluded Icon" clip-path="url(#clip0_320_16986)">
        <path fill-rule="evenodd" clip-rule="evenodd" d="M4.7104 6.48786C3.71925 5.15356 -0.0558387 2.32254 0.000626768 1.15571C0.19459 0.869946 1.28543 0.0163984 1.86484 0.0163984C2.5151 0.0164919 6.20421 3.76302 6.68031 4.09751C7.18069 3.65008 9.19354 0.771844 9.44949 0.00175381C10.3315 -0.0352345 11.0603 0.584836 11.5569 1.0103C13.2957 2.50035 9.39017 5.38337 8.89503 6.50823C10.7393 8.61 13.6836 10.7198 10.7637 12.6107C10.3567 12.8743 10.1878 13.0252 9.55424 12.9967C9.31857 12.4514 7.23049 9.19777 6.68021 8.84892L2.34713 12.776C1.75877 13.3454 0.892266 12.6515 0.435401 12.3236C-1.12087 11.206 3.63851 7.89971 4.7103 6.48786" fill="currentColor"/>
    </g>
    <defs>
        <clipPath id="clip0_320_16986">
            <rect width="12" height="13" fill="white" transform="matrix(1 0 0 -1 0 13)"/>
        </clipPath>
    </defs>
</svg>
