<svg viewBox="0 0 19 20" fill="none" xmlns="http://www.w3.org/2000/svg">
    <path d="M9.5095 0C14.7535 0 19 4.29414 19 9.58514C19 14.8761 14.7535 19.1703 9.5095 19.1703C4.256 19.1703 0 14.8761 0 9.58514C0 4.29414 4.256 0 9.5095 0ZM2.926 5.75108H5.7285C6.0325 4.55294 6.4695 3.40272 7.0395 2.33877C5.2915 2.94264 3.838 4.16953 2.926 5.75108ZM9.5 1.95537C8.7115 3.10558 8.094 4.38041 7.6855 5.75108H11.3145C10.906 4.38041 10.2885 3.10558 9.5 1.95537ZM16.853 11.5022C17.005 10.8887 17.1 10.2465 17.1 9.58514C17.1 8.92376 17.005 8.28156 16.853 7.66811H13.642C13.718 8.30073 13.775 8.93335 13.775 9.58514C13.775 10.2369 13.718 10.8695 13.642 11.5022H16.853ZM16.074 13.4192H13.2715C12.9675 14.6173 12.5305 15.7675 11.9605 16.8315C13.7085 16.2276 15.162 15.0103 16.074 13.4192ZM13.2715 5.75108H16.074C15.162 4.15995 13.7085 2.94264 11.9605 2.33877C12.5305 3.40272 12.9675 4.55294 13.2715 5.75108ZM9.5 17.2149C10.2885 16.0647 10.906 14.7899 11.3145 13.4192H7.6855C8.094 14.7899 8.7115 16.0647 9.5 17.2149ZM7.277 11.5022H11.723C11.8085 10.8695 11.875 10.2369 11.875 9.58514C11.875 8.93335 11.8085 8.29114 11.723 7.66811H7.277C7.1915 8.29114 7.125 8.93335 7.125 9.58514C7.125 10.2369 7.1915 10.8695 7.277 11.5022ZM7.0395 16.8315C6.4695 15.7675 6.0325 14.6173 5.7285 13.4192H2.926C3.838 15.0007 5.2915 16.2276 7.0395 16.8315ZM5.358 11.5022C5.282 10.8695 5.225 10.2369 5.225 9.58514C5.225 8.93335 5.282 8.30073 5.358 7.66811H2.147C1.995 8.28156 1.9 8.92376 1.9 9.58514C1.9 10.2465 1.995 10.8887 2.147 11.5022H5.358Z" fill="currentColor"/>
</svg>
