<svg xmlns="http://www.w3.org/2000/svg"  viewBox="0 0 17 17" fill="none">
<path fill-rule="evenodd" clip-rule="evenodd" d="M1.7 16.15H12.75C12.75 16.6192 13.1308 17 13.6 17C14.0692 17 14.45 16.6192 14.45 16.15V14.45C14.45 13.9808 14.0692 13.6 13.6 13.6C13.1308 13.6 12.75 13.9808 12.75 14.45H1.7C1.7 13.9808 1.3192 13.6 0.85 13.6C0.3808 13.6 0 13.9808 0 14.45V16.15C0 16.6192 0.3808 17 0.85 17C1.3192 17 1.7 16.6192 1.7 16.15ZM1.7 7.15202V11.9001C1.7 12.3693 2.0808 12.7501 2.55 12.7501H11.05C11.5192 12.7501 11.9 12.3693 11.9 11.9001V7.15202L12.149 7.40107C12.4805 7.73257 13.0195 7.73257 13.351 7.40107C13.6825 7.06958 13.6825 6.53068 13.351 6.19918L7.40095 0.249259C7.06945 -0.0830865 6.53055 -0.0830865 6.19905 0.249259L0.249049 6.19918C-0.0824506 6.53068 -0.0824506 7.06958 0.249049 7.40107C0.580549 7.73257 1.11945 7.73257 1.45095 7.40107L1.7 7.15202ZM16.15 10.2001V2.55018C16.6192 2.55018 17 2.16939 17 1.70019C17 1.231 16.6192 0.850202 16.15 0.850202H14.45C13.9808 0.850202 13.6 1.231 13.6 1.70019C13.6 2.16939 13.9808 2.55018 14.45 2.55018V10.2001C13.9808 10.2001 13.6 10.5809 13.6 11.0501C13.6 11.5193 13.9808 11.9001 14.45 11.9001H16.15C16.6192 11.9001 17 11.5193 17 11.0501C17 10.5809 16.6192 10.2001 16.15 10.2001ZM3.4 5.45205V11.0501H10.2V5.45205L6.8 2.05209L3.4 5.45205Z" fill="currentColor"/>
</svg>