<svg viewBox="0 0 15 18" fill="none" xmlns="http://www.w3.org/2000/svg">
    <path d="M14.9644 6.87605C14.8405 5.5691 14.3849 4.31693 13.642 3.2415C12.899 2.16606 11.894 1.304 10.7249 0.739261C9.5557 0.174523 8.26221 -0.0736451 6.97036 0.0189215C5.67851 0.111488 4.43231 0.541635 3.35312 1.26748C2.42598 1.896 1.64765 2.7249 1.07405 3.69463C0.500452 4.66436 0.145815 5.75085 0.0356184 6.87605C-0.0724807 7.99388 0.0662117 9.12209 0.441633 10.1788C0.817055 11.2356 1.41979 12.1943 2.20611 12.9856L6.88238 17.7354C6.9644 17.8192 7.06199 17.8858 7.16951 17.9312C7.27702 17.9766 7.39235 18 7.50882 18C7.6253 18 7.74062 17.9766 7.84814 17.9312C7.95566 17.8858 8.05324 17.8192 8.13527 17.7354L12.7939 12.9856C13.5802 12.1943 14.1829 11.2356 14.5584 10.1788C14.9338 9.12209 15.0725 7.99388 14.9644 6.87605ZM11.5586 11.7243L7.5 15.839L3.44135 11.7243C2.84322 11.1179 2.38505 10.3846 2.09977 9.57726C1.81448 8.7699 1.70918 7.90849 1.79142 7.05496C1.8742 6.18827 2.14591 5.35106 2.58689 4.60386C3.02788 3.85666 3.62713 3.21814 4.34131 2.73447C5.2774 2.10405 6.3762 1.76777 7.5 1.76777C8.6238 1.76777 9.7226 2.10405 10.6587 2.73447C11.3707 3.21627 11.9686 3.85197 12.4095 4.59589C12.8504 5.33982 13.1233 6.17351 13.2086 7.03707C13.2935 7.89349 13.1895 8.75835 12.9042 9.56902C12.6188 10.3797 12.1592 11.1159 11.5586 11.7243ZM7.5 3.62898C6.71473 3.62898 5.94709 3.86506 5.29416 4.30737C4.64122 4.74967 4.13233 5.37834 3.83181 6.11386C3.5313 6.84939 3.45268 7.65874 3.60588 8.43957C3.75907 9.2204 4.13722 9.93764 4.69249 10.5006C5.24777 11.0635 5.95522 11.4469 6.72541 11.6022C7.4956 11.7575 8.29391 11.6778 9.01941 11.3732C9.74491 11.0685 10.365 10.5526 10.8013 9.89061C11.2376 9.22865 11.4704 8.45041 11.4704 7.65428C11.4681 6.58743 11.049 5.56495 10.3049 4.81057C9.56084 4.0562 8.5523 3.63135 7.5 3.62898ZM7.5 9.89055C7.06374 9.89055 6.63727 9.7594 6.27453 9.51367C5.91179 9.26795 5.62907 8.91869 5.46212 8.51006C5.29517 8.10144 5.25149 7.6518 5.3366 7.218C5.42171 6.78421 5.63179 6.38574 5.94027 6.07299C6.24876 5.76024 6.64179 5.54726 7.06967 5.46097C7.49755 5.37468 7.94106 5.41897 8.34412 5.58823C8.74717 5.75749 9.09167 6.04412 9.33404 6.41187C9.57642 6.77962 9.70579 7.21198 9.70579 7.65428C9.70579 8.24737 9.47339 8.81618 9.05973 9.23556C8.64606 9.65495 8.08501 9.89055 7.5 9.89055Z" fill="currentColor"/>
</svg>
