<svg width="190" height="125" viewBox="0 0 190 125" fill="none" xmlns="http://www.w3.org/2000/svg">
<g id="Logo">
<g id="Group">
<g id="Group_2">
<path id="Vector" d="M6.42062 111.898V112.83H4.03674V120.646H2.89691V112.83H0.5V111.898H6.42062Z" fill="white"/>
<path id="Vector_2" d="M12.6402 113.978C13.057 114.199 13.3892 114.531 13.6237 114.974C13.8647 115.417 13.9819 115.958 13.9819 116.59V120.641H12.8551V116.752C12.8551 116.069 12.6858 115.541 12.3406 115.176C11.9954 114.811 11.5264 114.629 10.9337 114.629C10.341 114.629 9.85247 114.818 9.49424 115.196C9.13601 115.574 8.96015 116.121 8.96015 116.837V120.641H7.82031V111.359H8.96015V114.746C9.18811 114.395 9.50075 114.121 9.89155 113.932C10.2889 113.743 10.7318 113.646 11.2268 113.646C11.7479 113.646 12.2103 113.756 12.6337 113.978H12.6402Z" fill="white"/>
<path id="Vector_3" d="M22.0902 117.64H16.593C16.632 118.317 16.8665 118.845 17.2899 119.229C17.7133 119.607 18.2278 119.802 18.827 119.802C19.3221 119.802 19.7324 119.685 20.0646 119.457C20.3968 119.229 20.6247 118.916 20.7615 118.532H21.9925C21.8101 119.19 21.4389 119.731 20.8918 120.141C20.3381 120.558 19.6542 120.76 18.8336 120.76C18.1822 120.76 17.596 120.616 17.0815 120.323C16.5669 120.03 16.1631 119.613 15.87 119.073C15.5769 118.532 15.4336 117.907 15.4336 117.197C15.4336 116.487 15.5769 115.862 15.8635 115.328C16.1501 114.793 16.5474 114.383 17.0619 114.09C17.5765 113.803 18.1692 113.66 18.8336 113.66C19.4979 113.66 20.0646 113.803 20.5661 114.084C21.0676 114.364 21.4519 114.761 21.7255 115.256C21.999 115.751 22.1358 116.318 22.1358 116.943C22.1358 117.158 22.1228 117.392 22.0967 117.633L22.0902 117.64ZM20.6573 115.588C20.4619 115.275 20.2014 115.034 19.8757 114.872C19.5435 114.709 19.1788 114.624 18.7749 114.624C18.1952 114.624 17.7067 114.807 17.3029 115.178C16.8991 115.549 16.6646 116.057 16.606 116.708H20.9504C20.9504 116.272 20.8527 115.901 20.6638 115.588H20.6573Z" fill="white"/>
<path id="Vector_4" d="M29.1533 114.051C29.6027 113.79 30.1173 113.66 30.697 113.66C31.3157 113.66 31.8694 113.803 32.3644 114.096C32.8594 114.389 33.2437 114.8 33.5303 115.334C33.8169 115.868 33.9602 116.48 33.9602 117.184C33.9602 117.887 33.8169 118.499 33.5303 119.04C33.2437 119.587 32.8529 120.004 32.3579 120.31C31.8629 120.61 31.3092 120.759 30.697 120.759C30.0847 120.759 29.5832 120.629 29.1338 120.369C28.6844 120.108 28.3522 119.776 28.1242 119.379V120.649H26.9844V111.367H28.1242V115.054C28.3587 114.643 28.7039 114.311 29.1533 114.051ZM32.4751 115.829C32.2667 115.445 31.9866 115.151 31.6284 114.95C31.2701 114.748 30.8793 114.65 30.456 114.65C30.0326 114.65 29.6483 114.754 29.2966 114.956C28.9384 115.164 28.6583 115.458 28.4434 115.848C28.2284 116.239 28.1242 116.689 28.1242 117.197C28.1242 117.705 28.2284 118.167 28.4434 118.558C28.6583 118.949 28.9384 119.242 29.2966 119.45C29.6548 119.659 30.0391 119.756 30.456 119.756C30.8728 119.756 31.2701 119.652 31.6284 119.45C31.9866 119.248 32.2667 118.949 32.4751 118.558C32.6835 118.167 32.7878 117.711 32.7878 117.184C32.7878 116.656 32.6835 116.213 32.4751 115.829Z" fill="white"/>
<path id="Vector_5" d="M41.6944 117.64H36.1971C36.2362 118.317 36.4707 118.845 36.8941 119.229C37.3174 119.607 37.8255 119.802 38.4312 119.802C38.9262 119.802 39.3366 119.685 39.6687 119.457C40.0009 119.229 40.2289 118.916 40.3657 118.532H41.5967C41.4143 119.19 41.0431 119.731 40.4894 120.141C39.9358 120.558 39.2519 120.76 38.4312 120.76C37.7799 120.76 37.1937 120.616 36.6791 120.323C36.1646 120.03 35.7607 119.613 35.4676 119.073C35.1745 118.532 35.0312 117.907 35.0312 117.197C35.0312 116.487 35.1745 115.862 35.4546 115.328C35.7412 114.793 36.1385 114.383 36.6531 114.09C37.1676 113.803 37.7603 113.66 38.4312 113.66C39.1021 113.66 39.6622 113.803 40.1638 114.084C40.6653 114.37 41.0561 114.761 41.3231 115.256C41.5902 115.751 41.7335 116.318 41.7335 116.943C41.7335 117.158 41.7204 117.392 41.6944 117.633V117.64ZM40.268 115.588C40.0791 115.275 39.812 115.034 39.4864 114.872C39.1542 114.709 38.7894 114.624 38.3856 114.624C37.8059 114.624 37.3174 114.807 36.9136 115.178C36.5098 115.549 36.2753 116.057 36.2167 116.708H40.5546C40.5546 116.272 40.4569 115.901 40.268 115.588Z" fill="white"/>
<path id="Vector_6" d="M44.2571 120.49C43.8403 120.308 43.5081 120.06 43.2671 119.734C43.0261 119.415 42.8893 119.044 42.8633 118.627H44.0422C44.0748 118.972 44.2376 119.253 44.5242 119.467C44.8108 119.682 45.1885 119.793 45.6575 119.793C46.0939 119.793 46.4326 119.695 46.6866 119.507C46.9406 119.318 47.0644 119.07 47.0644 118.777C47.0644 118.484 46.9276 118.256 46.6605 118.106C46.3935 117.963 45.9767 117.813 45.4165 117.67C44.9085 117.533 44.4916 117.403 44.1659 117.266C43.8468 117.129 43.5667 116.921 43.3388 116.654C43.1108 116.38 42.9935 116.022 42.9935 115.579C42.9935 115.227 43.0978 114.908 43.3062 114.615C43.5146 114.322 43.8142 114.094 44.1985 113.918C44.5828 113.742 45.0192 113.664 45.5142 113.664C46.2763 113.664 46.8885 113.853 47.3575 114.237C47.8264 114.622 48.0739 115.149 48.113 115.82H46.9732C46.9471 115.462 46.8038 115.169 46.5433 114.954C46.2828 114.739 45.9245 114.628 45.4816 114.628C45.0713 114.628 44.7456 114.713 44.5046 114.889C44.2636 115.064 44.1399 115.292 44.1399 115.579C44.1399 115.807 44.2115 115.989 44.3613 116.139C44.5046 116.289 44.6935 116.406 44.915 116.491C45.1364 116.576 45.4426 116.68 45.8399 116.784C46.3349 116.921 46.7322 117.051 47.0448 117.181C47.351 117.312 47.618 117.507 47.8395 117.761C48.0609 118.021 48.1782 118.36 48.1847 118.777C48.1847 119.155 48.0805 119.493 47.872 119.793C47.6636 120.093 47.3705 120.334 46.9862 120.503C46.6084 120.672 46.1655 120.757 45.677 120.757C45.1495 120.757 44.6805 120.666 44.2571 120.49Z" fill="white"/>
<path id="Vector_7" d="M51.1806 114.715V118.766C51.1806 119.098 51.2522 119.339 51.3955 119.476C51.5388 119.613 51.7863 119.684 52.1381 119.684H52.9783V120.648H51.9492C51.3109 120.648 50.8354 120.505 50.5162 120.212C50.1971 119.919 50.0408 119.437 50.0408 118.773V114.721H49.1484V113.783H50.0408V112.051H51.1806V113.783H52.9718V114.721H51.1806V114.715Z" fill="white"/>
<path id="Vector_8" d="M66.8638 113.77L64.7209 120.641H63.542L61.8877 115.183L60.2333 120.641H59.0544L56.8984 113.77H58.0643L59.6471 119.54L61.3536 113.77H62.5194L64.1869 119.553L65.7435 113.77H66.8704H66.8638Z" fill="white"/>
<path id="Vector_9" d="M67.9924 115.334C68.279 114.807 68.6698 114.39 69.1648 114.097C69.6598 113.803 70.2134 113.66 70.8257 113.66C71.4379 113.66 71.9525 113.79 72.3954 114.051C72.8383 114.311 73.1705 114.637 73.3854 115.028V113.771H74.5383V120.642H73.3854V119.366C73.1575 119.77 72.8253 120.102 72.3759 120.362C71.9264 120.629 71.4054 120.76 70.8127 120.76C70.2199 120.76 69.6468 120.61 69.1583 120.31C68.6633 120.011 68.2725 119.587 67.9924 119.04C67.7058 118.5 67.5625 117.881 67.5625 117.184C67.5625 116.487 67.7058 115.862 67.9924 115.334ZM73.0728 115.842C72.8644 115.458 72.5843 115.165 72.226 114.956C71.8678 114.754 71.477 114.65 71.0536 114.65C70.6303 114.65 70.2395 114.748 69.8878 114.95C69.536 115.152 69.256 115.445 69.0475 115.829C68.8391 116.213 68.7349 116.663 68.7349 117.184C68.7349 117.705 68.8391 118.167 69.0475 118.558C69.256 118.949 69.536 119.242 69.8878 119.451C70.2395 119.652 70.6303 119.757 71.0536 119.757C71.477 119.757 71.8678 119.652 72.226 119.451C72.5778 119.249 72.8644 118.949 73.0728 118.558C73.2812 118.167 73.3854 117.718 73.3854 117.197C73.3854 116.676 73.2812 116.226 73.0728 115.842Z" fill="white"/>
<path id="Vector_10" d="M82.3897 113.768L78.2473 123.877H77.0683L78.4231 120.562L75.6484 113.762H76.9185L79.0745 119.331L81.2043 113.762H82.3832L82.3897 113.768Z" fill="white"/>
<path id="Vector_11" d="M88.2822 114.715V118.766C88.2822 119.098 88.3538 119.339 88.4971 119.476C88.6404 119.613 88.8879 119.684 89.2396 119.684H90.0798V120.648H89.0507C88.4124 120.648 87.937 120.505 87.6178 120.212C87.2987 119.919 87.1423 119.437 87.1423 118.773V114.721H86.25V113.783H87.1423V112.051H88.2822V113.783H90.0733V114.721H88.2822V114.715Z" fill="white"/>
<path id="Vector_12" d="M92.6974 120.323C92.1763 120.03 91.766 119.613 91.4663 119.073C91.1667 118.532 91.0234 117.907 91.0234 117.197C91.0234 116.487 91.1732 115.875 91.4794 115.334C91.7855 114.793 92.2024 114.383 92.7299 114.09C93.2575 113.803 93.8437 113.66 94.5016 113.66C95.1594 113.66 95.7456 113.803 96.2667 114.09C96.7877 114.377 97.2111 114.793 97.5172 115.328C97.8234 115.862 97.9732 116.487 97.9732 117.197C97.9732 117.907 97.8168 118.532 97.5042 119.073C97.1916 119.613 96.7682 120.03 96.2276 120.323C95.687 120.616 95.1008 120.76 94.4429 120.76C93.7851 120.76 93.2184 120.616 92.6908 120.323H92.6974ZM95.6023 119.47C95.9605 119.275 96.2536 118.988 96.4751 118.604C96.6966 118.22 96.8073 117.751 96.8073 117.197C96.8073 116.643 96.6966 116.174 96.4816 115.79C96.2667 115.406 95.9801 115.119 95.6284 114.93C95.2766 114.741 94.8989 114.65 94.4885 114.65C94.0782 114.65 93.6874 114.741 93.3422 114.93C92.997 115.119 92.7169 115.406 92.5085 115.79C92.3 116.174 92.1958 116.643 92.1958 117.197C92.1958 117.751 92.3001 118.233 92.502 118.617C92.7039 119.001 92.9774 119.288 93.3226 119.477C93.6678 119.665 94.0391 119.757 94.4495 119.757C94.8598 119.757 95.2441 119.659 95.6023 119.47Z" fill="white"/>
<path id="Vector_13" d="M104.22 114.715V118.766C104.22 119.098 104.291 119.339 104.435 119.476C104.578 119.613 104.825 119.684 105.177 119.684H106.017V120.648H104.988C104.35 120.648 103.874 120.505 103.555 120.212C103.236 119.919 103.08 119.437 103.08 118.773V114.721H102.188V113.783H103.08V112.051H104.22V113.783H106.011V114.721H104.22V114.715Z" fill="white"/>
<path id="Vector_14" d="M108.643 120.323C108.122 120.03 107.711 119.613 107.412 119.073C107.112 118.532 106.969 117.907 106.969 117.197C106.969 116.487 107.119 115.875 107.425 115.334C107.731 114.793 108.148 114.383 108.675 114.09C109.203 113.803 109.789 113.66 110.447 113.66C111.105 113.66 111.691 113.803 112.212 114.09C112.733 114.377 113.156 114.793 113.463 115.328C113.769 115.862 113.918 116.487 113.918 117.197C113.918 117.907 113.762 118.532 113.45 119.073C113.137 119.613 112.714 120.03 112.173 120.323C111.632 120.616 111.046 120.76 110.388 120.76C109.73 120.76 109.164 120.616 108.636 120.323H108.643ZM111.548 119.47C111.906 119.275 112.199 118.988 112.42 118.604C112.642 118.22 112.753 117.751 112.753 117.197C112.753 116.643 112.642 116.174 112.427 115.79C112.212 115.406 111.925 115.119 111.574 114.93C111.222 114.741 110.844 114.65 110.434 114.65C110.024 114.65 109.633 114.741 109.288 114.93C108.942 115.119 108.662 115.406 108.454 115.79C108.245 116.174 108.141 116.643 108.141 117.197C108.141 117.751 108.245 118.233 108.447 118.617C108.649 119.001 108.923 119.288 109.268 119.477C109.613 119.665 109.984 119.757 110.395 119.757C110.805 119.757 111.189 119.659 111.548 119.47Z" fill="white"/>
<path id="Vector_15" d="M121.522 113.77V120.641H120.382V119.625C120.168 119.977 119.861 120.25 119.471 120.446C119.08 120.641 118.65 120.739 118.187 120.739C117.653 120.739 117.171 120.628 116.748 120.407C116.325 120.185 115.986 119.853 115.738 119.41C115.491 118.967 115.367 118.427 115.367 117.795V113.77H116.494V117.645C116.494 118.322 116.663 118.843 117.009 119.208C117.354 119.573 117.823 119.755 118.415 119.755C119.008 119.755 119.51 119.566 119.861 119.189C120.213 118.811 120.389 118.264 120.389 117.547V113.77H121.529H121.522Z" fill="white"/>
<path id="Vector_16" d="M125.453 113.97C125.824 113.755 126.28 113.645 126.814 113.645V114.823H126.514C125.238 114.823 124.593 115.52 124.593 116.908V120.646H123.453V113.775H124.593V114.889C124.795 114.498 125.081 114.192 125.453 113.97Z" fill="white"/>
<path id="Vector_17" d="M132.876 114.715V118.766C132.876 119.098 132.948 119.339 133.091 119.476C133.234 119.613 133.482 119.684 133.833 119.684H134.674V120.648H133.644C133.006 120.648 132.531 120.505 132.212 120.212C131.892 119.919 131.736 119.437 131.736 118.773V114.721H130.844V113.783H131.736V112.051H132.876V113.783H134.667V114.721H132.876V114.715Z" fill="white"/>
<path id="Vector_18" d="M140.867 113.978C141.284 114.199 141.616 114.531 141.85 114.974C142.091 115.417 142.208 115.958 142.208 116.59V120.641H141.082V116.752C141.082 116.069 140.912 115.541 140.567 115.176C140.222 114.811 139.753 114.629 139.16 114.629C138.568 114.629 138.079 114.818 137.721 115.196C137.363 115.574 137.187 116.121 137.187 116.837V120.641H136.047V111.359H137.187V114.746C137.415 114.395 137.721 114.121 138.125 113.932C138.522 113.743 138.965 113.646 139.46 113.646C139.981 113.646 140.443 113.756 140.867 113.978Z" fill="white"/>
<path id="Vector_19" d="M150.312 117.64H144.814C144.853 118.317 145.088 118.845 145.511 119.229C145.935 119.607 146.449 119.802 147.048 119.802C147.543 119.802 147.954 119.685 148.286 119.457C148.618 119.229 148.846 118.916 148.983 118.532H150.214C150.032 119.19 149.66 119.731 149.107 120.141C148.553 120.558 147.869 120.76 147.048 120.76C146.397 120.76 145.811 120.616 145.296 120.323C144.782 120.03 144.378 119.613 144.085 119.073C143.792 118.532 143.648 117.907 143.648 117.197C143.648 116.487 143.792 115.862 144.078 115.328C144.365 114.793 144.762 114.383 145.277 114.09C145.791 113.797 146.384 113.66 147.055 113.66C147.726 113.66 148.286 113.803 148.787 114.084C149.289 114.37 149.673 114.761 149.947 115.256C150.22 115.751 150.357 116.318 150.357 116.943C150.357 117.158 150.344 117.392 150.318 117.633L150.312 117.64ZM148.879 115.588C148.683 115.275 148.423 115.034 148.097 114.872C147.765 114.709 147.4 114.624 146.996 114.624C146.417 114.624 145.928 114.807 145.524 115.178C145.12 115.549 144.886 116.057 144.827 116.708H149.165C149.165 116.272 149.068 115.901 148.879 115.588Z" fill="white"/>
<path id="Vector_20" d="M159.601 114.051C160.051 114.311 160.383 114.637 160.598 115.028V113.771H161.751V120.799C161.751 121.424 161.614 121.984 161.347 122.473C161.08 122.961 160.695 123.345 160.2 123.619C159.705 123.893 159.126 124.029 158.461 124.029C157.556 124.029 156.807 123.814 156.201 123.391C155.602 122.968 155.244 122.382 155.133 121.646H156.26C156.384 122.062 156.644 122.401 157.035 122.655C157.426 122.909 157.901 123.039 158.455 123.039C159.08 123.039 159.595 122.844 159.992 122.447C160.389 122.056 160.585 121.502 160.585 120.792V119.353C160.357 119.757 160.024 120.089 159.582 120.356C159.139 120.623 158.618 120.76 158.025 120.76C157.432 120.76 156.859 120.61 156.364 120.31C155.869 120.011 155.472 119.587 155.192 119.04C154.905 118.5 154.762 117.881 154.762 117.184C154.762 116.487 154.905 115.862 155.192 115.334C155.478 114.807 155.869 114.39 156.364 114.097C156.859 113.803 157.413 113.66 158.025 113.66C158.637 113.66 159.139 113.79 159.588 114.051H159.601ZM160.285 115.842C160.077 115.458 159.797 115.165 159.438 114.956C159.08 114.754 158.689 114.65 158.266 114.65C157.843 114.65 157.452 114.748 157.1 114.95C156.748 115.152 156.468 115.445 156.26 115.829C156.051 116.213 155.947 116.663 155.947 117.184C155.947 117.705 156.051 118.167 156.26 118.558C156.468 118.949 156.748 119.242 157.1 119.451C157.452 119.659 157.843 119.757 158.266 119.757C158.689 119.757 159.08 119.652 159.438 119.451C159.797 119.249 160.077 118.949 160.285 118.558C160.493 118.167 160.598 117.718 160.598 117.197C160.598 116.676 160.493 116.226 160.285 115.842Z" fill="white"/>
<path id="Vector_21" d="M164.823 111.359V120.641H163.684V111.359H164.823Z" fill="white"/>
<path id="Vector_22" d="M168.018 120.323C167.497 120.03 167.086 119.613 166.787 119.073C166.487 118.532 166.344 117.907 166.344 117.197C166.344 116.487 166.494 115.875 166.8 115.334C167.106 114.793 167.523 114.383 168.05 114.09C168.578 113.797 169.164 113.66 169.822 113.66C170.48 113.66 171.066 113.803 171.593 114.09C172.121 114.377 172.538 114.793 172.844 115.328C173.15 115.862 173.3 116.487 173.3 117.197C173.3 117.907 173.144 118.532 172.831 119.073C172.518 119.613 172.095 120.03 171.554 120.323C171.02 120.616 170.428 120.76 169.776 120.76C169.125 120.76 168.552 120.616 168.024 120.323H168.018ZM170.923 119.47C171.281 119.275 171.574 118.988 171.795 118.604C172.017 118.22 172.128 117.751 172.128 117.197C172.128 116.643 172.017 116.174 171.802 115.79C171.587 115.406 171.3 115.119 170.949 114.93C170.597 114.741 170.219 114.65 169.809 114.65C169.399 114.65 169.008 114.741 168.662 114.93C168.317 115.119 168.037 115.406 167.829 115.79C167.62 116.174 167.516 116.643 167.516 117.197C167.516 117.751 167.62 118.233 167.822 118.617C168.024 119.001 168.304 119.288 168.643 119.477C168.982 119.665 169.359 119.757 169.77 119.757C170.18 119.757 170.564 119.659 170.923 119.47Z" fill="white"/>
<path id="Vector_23" d="M176.974 114.051C177.423 113.79 177.938 113.66 178.517 113.66C179.136 113.66 179.69 113.803 180.185 114.096C180.68 114.389 181.064 114.8 181.351 115.334C181.637 115.868 181.774 116.48 181.774 117.184C181.774 117.887 181.631 118.499 181.351 119.04C181.064 119.587 180.673 120.004 180.178 120.31C179.683 120.61 179.123 120.759 178.517 120.759C177.912 120.759 177.404 120.629 176.954 120.369C176.505 120.108 176.172 119.776 175.945 119.379V120.649H174.805V111.367H175.945V115.054C176.179 114.643 176.518 114.311 176.974 114.051ZM180.295 115.829C180.087 115.445 179.8 115.151 179.449 114.95C179.09 114.748 178.7 114.65 178.276 114.65C177.853 114.65 177.469 114.754 177.117 114.956C176.759 115.164 176.479 115.458 176.264 115.848C176.049 116.239 175.945 116.689 175.945 117.197C175.945 117.705 176.049 118.167 176.264 118.558C176.479 118.949 176.759 119.242 177.117 119.45C177.469 119.652 177.859 119.756 178.276 119.756C178.693 119.756 179.09 119.652 179.449 119.45C179.8 119.248 180.087 118.949 180.295 118.558C180.504 118.167 180.608 117.711 180.608 117.184C180.608 116.656 180.504 116.213 180.295 115.829Z" fill="white"/>
<path id="Vector_24" d="M189.515 117.64H184.017C184.057 118.317 184.291 118.845 184.714 119.229C185.138 119.607 185.646 119.802 186.252 119.802C186.747 119.802 187.157 119.685 187.489 119.457C187.821 119.229 188.049 118.916 188.186 118.532H189.417C189.235 119.19 188.863 119.731 188.31 120.141C187.756 120.558 187.072 120.76 186.252 120.76C185.6 120.76 185.014 120.616 184.499 120.323C183.985 120.03 183.581 119.613 183.288 119.073C182.995 118.532 182.852 117.907 182.852 117.197C182.852 116.487 182.995 115.862 183.281 115.328C183.568 114.793 183.965 114.383 184.48 114.09C184.994 113.803 185.587 113.66 186.258 113.66C186.929 113.66 187.489 113.803 187.991 114.084C188.492 114.37 188.876 114.761 189.15 115.256C189.424 115.751 189.554 116.318 189.554 116.943C189.554 117.158 189.541 117.392 189.515 117.633V117.64ZM188.082 115.588C187.886 115.275 187.626 115.034 187.3 114.872C186.968 114.709 186.603 114.624 186.199 114.624C185.626 114.624 185.131 114.807 184.727 115.178C184.324 115.549 184.089 116.057 184.03 116.708H188.368C188.368 116.272 188.271 115.901 188.082 115.588Z" fill="white"/>
</g>
<g id="Group_3">
<path id="Vector_25" d="M47.0301 75.3123C46.9373 75.3931 46.8565 75.6232 46.7839 76.0028C46.7112 76.3823 46.5053 78.1427 46.1621 81.288C45.8189 84.4334 45.6493 86.9488 45.6493 88.8344C45.6493 89.6137 45.7421 90.4818 45.9238 91.4468C45.9763 91.5921 46.0005 91.7536 46.0005 91.9393C46.0005 92.4925 45.839 92.9891 45.516 93.4292C45.193 93.8693 44.7812 94.0914 44.2805 94.0914C43.9413 94.0914 43.5134 93.9259 42.9965 93.5907C42.4797 93.2597 42.1688 92.6903 42.0679 91.8909C41.9669 91.0914 41.9145 90.0538 41.9145 88.7698C41.9145 87.0175 42.1204 84.4132 42.5282 80.9489C42.936 77.4886 43.1823 75.7201 43.2671 75.6475C42.9804 75.6475 41.8337 75.7242 39.827 75.8776C37.8082 76.031 36.6373 76.1077 36.3102 76.1077C35.2564 76.1077 34.5215 75.9705 34.1137 75.6999C33.7059 75.4294 33.5 75.0014 33.5 74.416C33.5 73.8951 33.718 73.4954 34.1541 73.2168C34.5902 72.9422 35.6924 72.8009 37.465 72.8009C40.4165 72.8009 43.3074 72.6071 46.1459 72.2155C49.3437 71.7229 51.7663 71.4766 53.4137 71.4766C55.2589 71.4766 56.3773 71.6946 56.777 72.1307C57.1768 72.5667 57.3746 72.9988 57.3746 73.4308C57.3746 74.424 56.9345 74.9207 56.0543 74.9207C55.7676 74.9207 55.3073 74.8884 54.6694 74.8278C54.0233 74.7753 53.2723 74.7511 52.4123 74.7511C49.8202 74.7511 48.0274 74.9368 47.0342 75.3042L47.0301 75.3123Z" fill="white"/>
<path id="Vector_26" d="M59.5329 85.9141L59.7953 85.4215C61.0349 82.9303 62.3673 80.9114 63.7966 79.361C65.2259 77.8105 66.623 77.0312 67.9837 77.0312C69.0294 77.0312 69.8814 77.3179 70.5435 77.8913C71.2057 78.4646 71.5328 79.147 71.5328 79.9343C71.5328 80.4269 71.4197 80.8468 71.1936 81.2021C70.9675 81.5575 70.6566 81.7311 70.2569 81.7311C69.6229 81.7311 69.0415 81.4686 68.5207 80.9478C68.1532 80.6086 67.8585 80.439 67.6445 80.439C66.8773 80.439 65.5893 81.6342 63.7885 84.0204C61.9837 86.4067 60.9016 89.0917 60.5302 92.0715C60.4171 92.9315 60.1668 93.5331 59.7751 93.8763C59.3875 94.2195 58.8586 94.3891 58.1924 94.3891C57.4858 94.3891 56.9851 93.9853 56.6863 93.1818C56.3875 92.3783 56.2422 91.0621 56.2422 89.2411C56.2422 88.4941 56.2624 87.4847 56.3028 86.2129C56.3431 85.0137 56.4602 83.548 56.6581 81.8199C56.7106 81.3677 56.7429 81.0164 56.7671 80.758C56.8599 79.7526 56.9649 79.0662 57.082 78.6907C57.1991 78.3152 57.4737 77.968 57.9057 77.6369C58.3377 77.3098 58.8142 77.1443 59.335 77.1443C59.8882 77.1443 60.3081 77.3018 60.5948 77.6207C60.8814 77.9397 61.0268 78.287 61.0268 78.6665C61.0268 79.147 60.7967 80.1483 60.3364 81.6624C60.1708 82.1833 60.0335 82.8091 59.9205 83.5359L59.5369 85.902L59.5329 85.9141Z" fill="white"/>
<path id="Vector_27" d="M73.0565 83.3348V83.3509C73.3836 81.4855 73.5491 80.4196 73.5491 80.1531C73.5491 79.394 73.7147 78.7601 74.0498 78.2474C74.3809 77.7346 74.8452 77.4802 75.4388 77.4802C76.1373 77.4802 76.6783 77.6457 77.0659 77.9728C77.4535 78.2998 77.6514 78.6713 77.6514 79.0791C77.6514 79.4869 77.4616 80.3348 77.0821 81.6147L76.9892 81.9539C76.4239 83.9324 76.0888 85.5434 75.9758 86.795C75.8627 88.0467 75.8062 89.0521 75.8062 89.8233C75.8062 90.4491 75.9152 91.2849 76.1292 92.3266C76.1615 92.5123 76.1736 92.6658 76.1736 92.7869C76.1736 93.0211 75.9515 93.3401 75.5034 93.7398C75.0592 94.1395 74.5787 94.3374 74.066 94.3374C72.7133 94.3374 72.0391 93.3118 72.0391 91.2647C72.0391 89.5245 72.2854 87.4047 72.778 84.9054C72.8789 84.3523 72.9718 83.8314 73.0525 83.3388L73.0565 83.3348ZM80.4777 70.705C80.4777 71.4318 80.1507 72.0698 79.4926 72.6189C78.8385 73.168 78.2691 73.4426 77.7887 73.4426C77.1749 73.4426 76.6299 73.1882 76.1534 72.6754C75.677 72.1626 75.4388 71.6498 75.4388 71.1371C75.4388 70.3982 75.6729 69.8046 76.1453 69.3484C76.6178 68.8921 77.292 68.666 78.1722 68.666C78.8586 68.666 79.4158 68.8679 79.8398 69.2717C80.2637 69.6754 80.4777 70.1559 80.4777 70.7091V70.705Z" fill="white"/>
<path id="Vector_28" d="M84.5679 92.4469C84.3943 93.1656 84.2207 94.2517 84.0471 95.7053L83.3082 101.746C83.1871 102.731 82.9488 103.409 82.5935 103.789C82.2382 104.168 81.8062 104.358 81.2934 104.358C80.8331 104.358 80.393 104.184 79.9812 103.845C79.5653 103.502 79.3594 103.122 79.3594 102.702C79.3594 101.871 79.4886 100.914 79.743 99.8277C81.2692 93.7308 82.105 87.4079 82.2463 80.8508V80.5439C82.2463 79.1711 82.2826 78.2586 82.3634 77.8023C82.4401 77.3461 82.6622 76.9463 83.0256 76.5951C83.3889 76.2478 83.9017 76.0742 84.5679 76.0742C85.6864 76.0742 86.2436 76.9302 86.2436 78.6381C86.2436 79.3366 86.1144 80.5197 85.86 82.1872L85.7066 83.2491C86.8734 81.303 88.2624 79.6879 89.8694 78.3999C91.4764 77.1159 92.9178 76.4699 94.1856 76.4699C95.3323 76.4699 96.3094 76.8817 97.1129 77.6974C97.9164 78.517 98.3202 79.5466 98.3202 80.7861C98.3202 84.093 97.0362 87.1051 94.4723 89.8143C91.9043 92.5236 89.3687 93.8802 86.8573 93.8802C85.6702 93.8802 84.9071 93.4038 84.5679 92.4509V92.4469ZM93.588 79.9544C92.3364 79.9544 90.7173 81.1738 88.7267 83.6125C86.7362 86.0512 85.7389 87.9651 85.7389 89.3581C85.7389 89.7174 85.9165 90.0364 86.2678 90.319C86.6231 90.6017 87.0349 90.743 87.5033 90.743C88.8034 90.743 90.2974 89.7215 91.9811 87.6784C93.6648 85.6354 94.5086 83.661 94.5086 81.7552C94.5086 81.1213 94.4117 80.661 94.2179 80.3783C94.0241 80.0957 93.8141 79.9544 93.588 79.9544Z" fill="white"/>
<path id="Vector_29" d="M104.112 93.3851C104.12 92.7108 103.717 91.2532 102.897 89.0204C101.25 84.6072 100.422 81.4619 100.422 79.5844C100.422 77.9048 101.084 77.0649 102.404 77.0649C103.725 77.0649 104.338 77.8321 104.338 79.3704C104.338 80.3556 104.363 81.0541 104.407 81.466C104.451 81.8778 104.613 82.6328 104.883 83.723C105.154 84.8132 105.425 85.7216 105.691 86.4484C105.844 86.8885 106.03 87.4619 106.244 88.1684C106.365 88.6085 106.474 88.9154 106.567 89.089C106.628 88.9962 106.842 88.5964 107.213 87.8898C107.427 87.4578 108.154 86.2385 109.394 84.2237C110.633 82.2089 111.723 80.6059 112.66 79.4068C113.597 78.2076 114.295 77.4768 114.756 77.2103C115.216 76.9438 115.704 76.8105 116.217 76.8105C116.73 76.8105 117.186 76.9842 117.529 77.3314C117.873 77.6786 118.042 78.1066 118.042 78.6073C118.042 79.2008 117.61 79.7863 116.75 80.3596C115.91 80.933 114.764 82.2452 113.318 84.2923C111.869 86.3394 110.31 88.9195 108.638 92.0204C107.698 93.7929 106.85 94.6771 106.103 94.6771C105.457 94.6771 104.791 94.2411 104.104 93.373L104.112 93.3851Z" fill="white"/>
<path id="Vector_30" d="M132.154 88.2531C132.154 89.3191 131.258 90.5909 129.465 92.0727C127.672 93.5546 125.649 94.2934 123.396 94.2934C121.664 94.2934 120.303 93.7484 119.31 92.6582C118.317 91.568 117.82 90.0499 117.82 88.1037C117.82 85.237 118.834 82.5479 120.861 80.0365C122.888 77.5251 125.056 76.2734 127.361 76.2734C128.508 76.2734 129.429 76.6368 130.127 77.3636C130.822 78.0904 131.173 78.9585 131.173 79.9598C131.173 81.7404 130.317 83.4403 128.605 85.0553C126.893 86.6704 124.7 87.7807 122.028 88.3985C121.721 88.4712 121.567 88.6529 121.567 88.9516C121.567 89.4442 121.785 89.9126 122.221 90.3567C122.657 90.8009 123.239 91.027 123.966 91.027C126.025 91.027 128.068 89.9651 130.095 87.8453C130.482 87.4375 130.862 87.2316 131.233 87.2316C131.847 87.2316 132.154 87.5748 132.154 88.2612V88.2531ZM121.842 85.5318C123.461 85.2047 124.886 84.5143 126.122 83.4564C127.357 82.4026 127.975 81.4416 127.975 80.5816C127.975 80.2424 127.882 79.9598 127.692 79.7297C127.503 79.4995 127.26 79.3824 126.962 79.3824C126.069 79.3824 125.08 80.0365 123.998 81.3488C122.912 82.661 122.193 84.054 121.846 85.5277L121.842 85.5318Z" fill="white"/>
<path id="Vector_31" d="M140.218 88.2693C138.393 89.9813 137.101 91.7578 136.329 93.603C136.002 94.3702 135.655 94.9557 135.284 95.3554C134.391 95.3029 133.737 95.1212 133.317 94.8103C132.897 94.4994 132.688 93.9826 132.688 93.2679C132.688 92.634 132.962 91.8467 133.511 90.9099C134.06 89.9732 135.421 88.5035 137.589 86.5089C137.916 86.202 138.195 85.9356 138.417 85.7094C136.459 82.8427 135.482 80.6018 135.482 78.9948C135.482 77.3031 136.224 76.4592 137.71 76.4592C138.744 76.4592 139.297 77.2183 139.37 78.7324C139.43 80.2909 140.004 81.9019 141.09 83.5735C141.623 83.0931 142.192 82.5237 142.794 81.8696C142.967 81.6839 143.133 81.5143 143.286 81.3609C144.578 80.0002 145.503 78.7889 146.068 77.7351C146.436 77.0689 146.743 76.6409 146.981 76.4431C147.223 76.2492 147.578 76.1523 148.047 76.1523C148.568 76.1523 149.02 76.3381 149.399 76.7055C149.779 77.0729 149.969 77.5251 149.969 78.0581C149.969 79.1765 147.586 81.8858 142.822 86.1859C144.441 88.1724 146.165 89.6744 147.998 90.6879C148.224 90.8211 148.438 90.9786 148.644 91.1643C148.725 91.3581 148.765 91.5681 148.765 91.7942C148.765 92.315 148.555 92.7753 148.136 93.171C147.716 93.5667 147.203 93.7605 146.597 93.7605C145.083 93.7605 142.951 91.9315 140.206 88.2734L140.218 88.2693Z" fill="white"/>
</g>
<g id="Group_4">
<g id="Group_5">
<path id="Vector_32" d="M123.652 19.8705C119.995 18.8189 113.095 17.097 107.062 17.097C106.957 17.097 106.852 17.1002 106.75 17.1002C97.9314 17.1955 90.0653 19.054 86.1641 20.1532L86.2308 20.0547L86.1736 20.0706C88.4769 16.7539 93.2422 10.4191 98.8463 5.9651C101.181 4.11296 104.571 3.03916 107.005 2.46414L107.538 2.31482C108.304 2.13692 108.692 2.01619 109.159 1.93359C110.223 3.36638 116.656 11.9504 123.652 19.8673V19.8705Z" fill="white"/>
<g id="Group_6">
<path id="Vector_33" d="M63.9083 22.8038C64.8137 19.9446 65.5603 16.8757 66.129 15.0998L66.9836 14.8361C67.1996 14.7726 67.3807 14.7281 67.5681 14.6995C67.8572 14.6551 68.1686 14.6328 68.499 14.6328C70.8054 14.6328 75.0371 15.7702 82.2455 21.0534L81.9977 21.1296L82.039 21.1518C78.6429 22.3495 71.3455 25.1802 66.1099 29.056C63.6446 30.8796 61.3382 33.4592 59.7656 35.3908C60.7505 32.4966 62.4374 27.4644 63.9083 22.8007V22.8038Z" fill="white"/>
<path id="Vector_34" d="M81.9977 21.1308L82.039 21.1531C78.6429 22.3508 71.3455 25.1814 66.1099 29.0572C63.6446 30.8808 61.3382 33.4605 59.7656 35.392C60.7505 32.4978 62.4374 27.4656 63.9083 22.8019C64.8137 19.9427 65.5603 16.8738 66.129 15.0979L66.9836 14.8342C67.1996 14.7706 67.3807 14.7262 67.5681 14.6976C67.8572 14.6531 68.1686 14.6309 68.499 14.6309C70.8054 14.6309 75.0371 15.7682 82.2455 21.0514L81.9977 21.1277V21.1308Z" fill="white"/>
</g>
<g id="Group_7">
<path id="Vector_35" d="M59.5 38.52L59.9988 37.8655C61.3839 36.0324 64.151 32.6268 67.1214 30.4252C71.8614 26.9179 78.4789 24.2556 81.9386 23.0039C79.6544 26.4445 75.1463 33.6339 72.7954 40.0163C70.7431 45.595 69.7201 52.3713 69.2722 56.2567C67.9411 52.7462 64.6657 44.9532 59.5032 38.5232L59.5 38.52Z" fill="white"/>
<path id="Vector_36" d="M81.9432 23C79.659 26.4406 75.151 33.63 72.8 40.0124C70.7477 45.5911 69.7248 52.3674 69.2768 56.2528C67.9457 52.7423 64.6703 44.9493 59.5078 38.5192L60.0066 37.8648C61.3917 36.0317 64.1588 32.6261 67.1292 30.4245C71.8692 26.9171 78.4867 24.2549 81.9464 23.0032L81.9432 23Z" fill="white"/>
</g>
<path id="Vector_37" d="M116.273 47.0629C113.649 47.8889 106.021 51.0022 96.7157 61.1716C95.5275 58.0963 92.0678 49.0357 90.2856 43.438C88.1793 36.8268 86.1397 27.1023 85.3359 23.0898C88.4874 24.9833 95.7816 29.5263 101.56 34.3139C106.354 38.2882 113.226 44.3561 116.276 47.0629H116.273Z" fill="white"/>
<path id="Vector_38" d="M124.35 21.5472C123.165 24.3365 119.28 34.0928 117.409 45.7934C113.781 42.572 107.313 36.879 102.649 33.0063C96.7811 28.1424 89.5536 23.6376 86.1797 21.6139C89.7601 20.5814 97.7977 18.5926 106.766 18.4973C106.88 18.4941 106.992 18.4941 107.106 18.4941C113.527 18.4941 121.158 20.5846 124.141 21.4836L124.354 21.5472H124.35Z" fill="white"/>
<g id="Group_8">
<path id="Vector_39" d="M71.3538 58.0908C71.16 58.0908 70.9694 58.094 70.7852 58.0972L70.8233 57.7223C71.141 54.6311 72.1226 46.7778 74.3941 40.5955C76.7895 34.0892 81.4501 26.7696 83.6707 23.4688L83.6803 23.5228H83.6834C84.5666 27.9069 86.5617 37.3296 88.668 43.9472C90.4376 49.5068 93.8432 58.4403 95.0854 61.6617C91.4034 60.8515 78.3081 58.0876 71.3538 58.0876V58.0908Z" fill="white"/>
<path id="Vector_40" d="M95.0854 61.6648C91.4034 60.8547 78.3081 58.0908 71.3538 58.0908C71.16 58.0908 70.9694 58.094 70.7852 58.0972L70.8233 57.7223C71.141 54.6311 72.1226 46.7778 74.3941 40.5955C76.7895 34.0892 81.4501 26.7696 83.6707 23.4688L83.6803 23.5228H83.6834C84.5666 27.9069 86.5617 37.3296 88.668 43.9472C90.4376 49.5068 93.8432 58.4403 95.0854 61.6617V61.6648Z" fill="white"/>
</g>
<path id="Vector_41" d="M106.134 1.17032C106.134 1.17032 106.13 1.16714 106.127 1.17032C105.371 1.22115 104.612 1.25292 103.865 1.27516H103.862C103.265 1.28786 102.671 1.29422 102.08 1.29422C96.9331 1.29422 92.2027 0.763672 88.5524 0.763672C87.0879 0.763672 85.8012 0.846272 84.7274 1.08772H84.7243L84.1206 2.17105C83.5138 3.26073 82.3892 7.05714 84.5686 19.0977C84.6131 19.3455 84.6607 19.5933 84.7052 19.8442C84.7115 19.8951 84.7211 19.9427 84.7306 19.9936C86.6939 17.0867 91.939 9.79247 98.1849 4.83013C100.695 2.8382 104.297 1.71357 106.763 1.12902C106.553 1.1449 106.343 1.16079 106.134 1.17349V1.17032Z" fill="white"/>
<path id="Vector_42" d="M82.8969 19.422C76.9529 15.1109 72.1208 12.9284 68.515 12.9284C68.1306 12.9284 67.7557 12.9538 67.4062 13.0078C68.9089 11.5845 71.7205 9.9802 75.088 7.68328C77.6073 5.96139 79.8026 3.78203 82.2329 2.22852C81.4165 4.5572 81.0797 9.39564 82.9001 19.422H82.8969Z" fill="white"/>
</g>
</g>
</g>
</g>
</svg>
