<svg viewBox="0 0 211 66" fill="none" xmlns="http://www.w3.org/2000/svg">
<path d="M63.4301 14.2105C63.4301 14.2105 53.5528 2.15213 53.1159 1.01504L28.6523 0L22.3469 1.84698L13.7672 9.18993L7.40077 14.2073L0 39.6474C0 39.6474 10.4619 53.8065 10.8988 60.1023L10.9855 61.4996C10.9855 61.4996 25.5847 61.6731 39.3937 65.6947C39.3937 65.6947 54.5871 51.3589 62.6367 50.2218C62.6367 50.2218 67.4517 27.4959 70.3362 23.3009L63.4301 14.2073V14.2105Z" fill="white"/>
<path d="M67.3896 21.1592C63.6924 20.096 56.7156 18.355 50.6158 18.355C50.5098 18.355 50.4038 18.3582 50.301 18.3582C41.3841 18.4546 33.4308 20.3337 29.4863 21.4451L29.5538 21.3455L29.496 21.3615C31.8248 18.0081 36.643 11.6031 42.3092 7.09964C44.6701 5.22696 48.0975 4.14126 50.558 3.55986L51.0976 3.40889C51.8717 3.22901 52.2636 3.10695 52.7358 3.02344C53.8119 4.47211 60.3164 13.1513 67.3896 21.156V21.1592Z" fill="#213A59"/>
<path d="M6.9855 24.1288C7.90096 21.2379 8.65582 18.135 9.23079 16.3394L10.0949 16.0728C10.3133 16.0085 10.4964 15.9636 10.6859 15.9346C10.9782 15.8897 11.293 15.8672 11.627 15.8672C13.9591 15.8672 18.2376 17.0171 25.526 22.3589L25.2754 22.436L25.3172 22.4585C21.8834 23.6695 14.5051 26.5315 9.21152 30.4503C6.7189 32.2941 4.38688 34.9023 2.79688 36.8553C3.79264 33.929 5.49828 28.841 6.9855 24.1256V24.1288Z" fill="#80EE98"/>
<path d="M25.2754 22.4392L25.3172 22.4617C21.8834 23.6727 14.5051 26.5347 9.21152 30.4535C6.7189 32.2973 4.38688 34.9055 2.79688 36.8585C3.79264 33.9323 5.49828 28.8442 6.9855 24.1288C7.90096 21.2379 8.65582 18.135 9.23079 16.3394L10.0949 16.0728C10.3133 16.0085 10.4964 15.9636 10.6859 15.9346C10.9782 15.8897 11.293 15.8672 11.627 15.8672C13.9591 15.8672 18.2376 17.0171 25.526 22.3589L25.2754 22.436V22.4392Z" fill="#80EE98"/>
<path d="M2.52734 40.0162L3.03165 39.3545C4.43214 37.5011 7.22992 34.0577 10.2333 31.8317C15.0258 28.2855 21.7167 25.5937 25.2147 24.3281C22.9052 27.8069 18.3471 35.0759 15.9701 41.5291C13.8951 47.1696 12.8608 54.0211 12.4079 57.9496C11.062 54.4002 7.75028 46.5208 2.53056 40.0194L2.52734 40.0162Z" fill="#46DFB1"/>
<path d="M25.2173 24.3281C22.9078 27.8069 18.3498 35.0759 15.9728 41.5291C13.8977 47.1696 12.8634 54.0211 12.4105 57.9496C11.0646 54.4002 7.75293 46.5208 2.5332 40.0194L3.03751 39.3577C4.438 37.5043 7.23577 34.0609 10.2391 31.8349C15.0316 28.2887 21.7225 25.5969 25.2205 24.3313L25.2173 24.3281Z" fill="#46DFB1"/>
<path d="M59.9322 48.6607C57.2789 49.4958 49.5666 52.6437 40.1582 62.9258C38.9569 59.8164 35.4589 50.6554 33.6569 44.9956C31.5272 38.3112 29.465 28.4788 28.6523 24.4219C31.8388 26.3363 39.2139 30.9297 45.0567 35.7704C49.9039 39.7887 56.8517 45.9239 59.9354 48.6607H59.9322Z" fill="#15919B"/>
<path d="M68.0968 22.8603C66.8987 25.6806 62.9702 35.545 61.0783 47.3753C57.41 44.1182 50.8701 38.3621 46.1547 34.4465C40.2218 29.5287 32.9142 24.9739 29.5029 22.9278C33.123 21.8838 41.2497 19.873 50.3176 19.7766C50.4332 19.7734 50.5457 19.7734 50.6613 19.7734C57.153 19.7734 64.8686 21.887 67.8848 22.7961L68.1 22.8603H68.0968Z" fill="#0C647A"/>
<path d="M14.5125 59.8106C14.3165 59.8106 14.1238 59.8138 13.9375 59.817L13.976 59.438C14.2973 56.3126 15.2898 48.3722 17.5865 42.1213C20.0084 35.5429 24.7206 28.1421 26.9659 24.8047L26.9756 24.8593H26.9788C27.8718 29.292 29.889 38.8192 32.0186 45.5101C33.8078 51.1314 37.2512 60.1639 38.5072 63.421C34.7843 62.6019 21.5438 59.8074 14.5125 59.8074V59.8106Z" fill="#0AD2C8"/>
<path d="M38.5072 63.4242C34.7843 62.6051 21.5438 59.8106 14.5125 59.8106C14.3165 59.8106 14.1238 59.8138 13.9375 59.817L13.976 59.438C14.2973 56.3126 15.2898 48.3722 17.5865 42.1213C20.0084 35.5429 24.7206 28.1421 26.9659 24.8047L26.9756 24.8593H26.9788C27.8718 29.292 29.889 38.8192 32.0186 45.5101C33.8078 51.1314 37.2512 60.1639 38.5072 63.421V63.4242Z" fill="#0AD2C8"/>
<path d="M49.6788 2.2549C49.6788 2.2549 49.6756 2.25169 49.6724 2.2549C48.9079 2.3063 48.1402 2.33842 47.3853 2.3609H47.3821C46.7782 2.37375 46.1776 2.38018 45.5801 2.38018C40.3764 2.38018 35.5936 1.84375 31.9028 1.84375C30.422 1.84375 29.1211 1.92727 28.0354 2.17139H28.0322L27.4219 3.26673C26.8084 4.36849 25.6713 8.207 27.8748 20.381C27.9198 20.6315 27.968 20.8821 28.0129 21.1359C28.0193 21.1873 28.029 21.2354 28.0386 21.2868C30.0237 18.3477 35.327 10.9726 41.642 5.95529C44.1796 3.94128 47.8222 2.80418 50.3148 2.21315C50.1028 2.22921 49.8908 2.24527 49.6788 2.25812V2.2549Z" fill="#1DA834"/>
<path d="M26.1819 20.7122C20.172 16.3534 15.2863 14.1466 11.6406 14.1466C11.2519 14.1466 10.8729 14.1723 10.5195 14.2269C12.0389 12.7879 14.8816 11.1657 18.2865 8.84337C20.8337 7.10239 23.0533 4.89886 25.5106 3.32812C24.6851 5.68262 24.3446 10.5747 26.1851 20.7122H26.1819Z" fill="#4FC966"/>
<path d="M91.4505 23.5074C91.3435 23.6005 91.2504 23.8657 91.1666 24.3032C91.0829 24.7407 90.8455 26.7699 90.4499 30.3955C90.0543 34.0211 89.8588 36.9206 89.8588 39.0941C89.8588 39.9924 89.9659 40.993 90.1753 42.1054C90.2358 42.2729 90.2637 42.4591 90.2637 42.6732C90.2637 43.3108 90.0776 43.8832 89.7052 44.3905C89.3329 44.8979 88.8582 45.1538 88.2811 45.1538C87.8901 45.1538 87.3968 44.963 86.8011 44.5767C86.2053 44.1951 85.847 43.5388 85.7306 42.6173C85.6142 41.6958 85.5537 40.4997 85.5537 39.0197C85.5537 36.9998 85.7911 33.9978 86.2612 30.0046C86.7312 26.016 87.0151 23.9774 87.1129 23.8937C86.7824 23.8937 85.4607 23.9821 83.1475 24.159C80.8205 24.3358 79.4708 24.4242 79.0938 24.4242C77.879 24.4242 77.032 24.266 76.5619 23.9542C76.0919 23.6423 75.8545 23.149 75.8545 22.4742C75.8545 21.8738 76.1058 21.413 76.6085 21.0919C77.1111 20.7754 78.3817 20.6125 80.4249 20.6125C83.8271 20.6125 87.1594 20.3891 90.4313 19.9376C94.1174 19.3698 96.9099 19.0859 98.8088 19.0859C100.936 19.0859 102.225 19.3373 102.686 19.8399C103.146 20.3426 103.374 20.8406 103.374 21.3385C103.374 22.4835 102.867 23.0559 101.853 23.0559C101.522 23.0559 100.992 23.0187 100.256 22.9489C99.5115 22.8884 98.6459 22.8605 97.6545 22.8605C94.6666 22.8605 92.6001 23.0745 91.4552 23.4981L91.4505 23.5074Z" fill="#213A59"/>
<path d="M105.864 35.7235L106.167 35.1557C107.596 32.2841 109.132 29.957 110.779 28.1698C112.427 26.3826 114.037 25.4844 115.606 25.4844C116.811 25.4844 117.793 25.8148 118.556 26.4757C119.32 27.1366 119.697 27.9232 119.697 28.8307C119.697 29.3985 119.566 29.8825 119.306 30.2921C119.045 30.7017 118.687 30.9018 118.226 30.9018C117.495 30.9018 116.825 30.5993 116.225 29.9989C115.801 29.6079 115.461 29.4125 115.215 29.4125C114.33 29.4125 112.846 30.7901 110.77 33.5407C108.689 36.2913 107.442 39.3863 107.014 42.8211C106.884 43.8124 106.595 44.5059 106.144 44.9015C105.697 45.2971 105.087 45.4926 104.319 45.4926C103.505 45.4926 102.928 45.0272 102.583 44.101C102.239 43.1748 102.071 41.6575 102.071 39.5585C102.071 38.6975 102.095 37.534 102.141 36.0679C102.188 34.6856 102.323 32.9962 102.551 31.0042C102.611 30.4829 102.648 30.078 102.676 29.7802C102.783 28.6213 102.904 27.8301 103.039 27.3972C103.174 26.9644 103.491 26.5641 103.989 26.1825C104.487 25.8055 105.036 25.6147 105.636 25.6147C106.274 25.6147 106.758 25.7962 107.088 26.1639C107.419 26.5316 107.586 26.9318 107.586 27.3693C107.586 27.9232 107.321 29.0774 106.791 30.8227C106.6 31.4231 106.442 32.1445 106.311 32.9822L105.869 35.7095L105.864 35.7235Z" fill="#213A59"/>
<path d="M121.451 32.7522V32.7708C121.828 30.6206 122.019 29.3919 122.019 29.0848C122.019 28.2098 122.21 27.4791 122.596 26.888C122.978 26.2969 123.513 26.0037 124.197 26.0037C125.002 26.0037 125.626 26.1945 126.073 26.5715C126.52 26.9485 126.748 27.3767 126.748 27.8467C126.748 28.3168 126.529 29.2942 126.091 30.7695L125.984 31.1605C125.333 33.441 124.946 35.298 124.816 36.7408C124.686 38.1836 124.621 39.3425 124.621 40.2314C124.621 40.9528 124.746 41.9162 124.993 43.117C125.03 43.3311 125.044 43.508 125.044 43.6476C125.044 43.9175 124.788 44.2852 124.272 44.746C123.76 45.2067 123.206 45.4348 122.615 45.4348C121.056 45.4348 120.278 44.2526 120.278 41.893C120.278 39.887 120.562 37.4436 121.13 34.5627C121.246 33.9251 121.353 33.3247 121.447 32.7569L121.451 32.7522ZM130.005 18.194C130.005 19.0318 129.629 19.7671 128.87 20.4001C128.116 21.0331 127.46 21.3495 126.906 21.3495C126.198 21.3495 125.57 21.0563 125.021 20.4653C124.472 19.8742 124.197 19.2831 124.197 18.692C124.197 17.8403 124.467 17.1562 125.012 16.6302C125.556 16.1043 126.333 15.8437 127.348 15.8437C128.139 15.8437 128.781 16.0764 129.27 16.5418C129.759 17.0072 130.005 17.5611 130.005 18.1987V18.194Z" fill="#213A59"/>
<path d="M134.721 43.2554C134.521 44.0838 134.32 45.3358 134.12 47.0113L133.269 53.9739C133.129 55.1095 132.854 55.8914 132.445 56.3289C132.035 56.7664 131.537 56.9851 130.946 56.9851C130.416 56.9851 129.908 56.785 129.434 56.3941C128.954 55.9985 128.717 55.561 128.717 55.0769C128.717 54.1182 128.866 53.0151 129.159 51.7632C130.918 44.7354 131.882 37.447 132.045 29.8887V29.535C132.045 27.9525 132.086 26.9007 132.179 26.3748C132.268 25.8489 132.524 25.3881 132.943 24.9832C133.362 24.5829 133.953 24.3828 134.721 24.3828C136.01 24.3828 136.652 25.3695 136.652 27.3382C136.652 28.1434 136.503 29.507 136.21 31.4292L136.033 32.6532C137.378 30.4099 138.979 28.5483 140.832 27.0636C142.684 25.5836 144.345 24.8389 145.807 24.8389C147.129 24.8389 148.255 25.3136 149.181 26.2538C150.107 27.1986 150.573 28.3854 150.573 29.8142C150.573 33.626 149.093 37.098 146.137 40.2209C143.177 43.3438 140.254 44.9076 137.36 44.9076C135.991 44.9076 135.112 44.3584 134.721 43.26V43.2554ZM145.118 28.8555C143.675 28.8555 141.809 30.261 139.514 33.0721C137.22 35.8832 136.07 38.0893 136.07 39.695C136.07 40.1092 136.275 40.4769 136.68 40.8027C137.09 41.1284 137.564 41.2913 138.104 41.2913C139.603 41.2913 141.325 40.1138 143.266 37.7588C145.206 35.4038 146.179 33.128 146.179 30.9312C146.179 30.2005 146.067 29.6699 145.844 29.3441C145.621 29.0183 145.379 28.8555 145.118 28.8555Z" fill="#213A59"/>
<path d="M157.246 44.3397C157.255 43.5624 156.79 41.8823 155.845 39.3085C153.946 34.2215 152.992 30.596 152.992 28.4318C152.992 26.4957 153.755 25.5276 155.277 25.5276C156.799 25.5276 157.507 26.4119 157.507 28.1851C157.507 29.3207 157.535 30.1259 157.586 30.6006C157.637 31.0753 157.823 31.9457 158.135 33.2023C158.447 34.4589 158.759 35.5061 159.066 36.3438C159.243 36.8511 159.457 37.512 159.703 38.3265C159.843 38.8338 159.969 39.1875 160.076 39.3876C160.146 39.2806 160.392 38.8198 160.82 38.0054C161.067 37.5074 161.905 36.1018 163.334 33.7794C164.763 31.457 166.019 29.6093 167.099 28.227C168.179 26.8447 168.984 26.0023 169.514 25.6951C170.045 25.388 170.608 25.2344 171.199 25.2344C171.79 25.2344 172.316 25.4345 172.712 25.8348C173.107 26.235 173.303 26.7284 173.303 27.3055C173.303 27.9896 172.805 28.6645 171.814 29.3254C170.846 29.9863 169.524 31.4989 167.858 33.8585C166.187 36.2182 164.39 39.1922 162.463 42.7666C161.379 44.8097 160.402 45.829 159.541 45.829C158.796 45.829 158.028 45.3263 157.237 44.3257L157.246 44.3397Z" fill="#213A59"/>
<path d="M189.574 38.4182C189.574 39.6469 188.541 41.113 186.474 42.8211C184.408 44.5291 182.076 45.3808 179.479 45.3808C177.483 45.3808 175.914 44.7525 174.769 43.4959C173.624 42.2393 173.052 40.4893 173.052 38.246C173.052 34.9416 174.22 31.8419 176.556 28.947C178.893 26.0522 181.392 24.6094 184.05 24.6094C185.371 24.6094 186.432 25.0282 187.238 25.866C188.038 26.7037 188.443 27.7044 188.443 28.8586C188.443 30.9111 187.456 32.8705 185.483 34.7322C183.51 36.5938 180.982 37.8737 177.901 38.5858C177.548 38.6696 177.371 38.879 177.371 39.2234C177.371 39.7912 177.622 40.3311 178.125 40.8431C178.627 41.355 179.298 41.6156 180.135 41.6156C182.509 41.6156 184.864 40.3916 187.2 37.9482C187.647 37.4781 188.085 37.2407 188.513 37.2407C189.22 37.2407 189.574 37.6363 189.574 38.4275V38.4182ZM177.687 35.2813C179.554 34.9044 181.197 34.1085 182.621 32.8891C184.045 31.6744 184.757 30.5667 184.757 29.5754C184.757 29.1844 184.65 28.8586 184.431 28.5933C184.212 28.328 183.933 28.1931 183.589 28.1931C182.56 28.1931 181.42 28.947 180.173 30.4596C178.921 31.9722 178.092 33.5779 177.692 35.2767L177.687 35.2813Z" fill="#213A59"/>
<path d="M198.868 38.4359C196.765 40.4092 195.275 42.457 194.387 44.584C194.01 45.4683 193.609 46.1431 193.181 46.6039C192.153 46.5434 191.399 46.3339 190.915 45.9756C190.43 45.6172 190.188 45.0215 190.188 44.1977C190.188 43.467 190.505 42.5594 191.138 41.4797C191.771 40.3999 193.339 38.7058 195.839 36.4066C196.216 36.0529 196.537 35.7458 196.793 35.4851C194.535 32.1807 193.409 29.5976 193.409 27.7453C193.409 25.7952 194.266 24.8225 195.978 24.8225C197.17 24.8225 197.807 25.6974 197.891 27.4428C197.961 29.2393 198.622 31.0963 199.874 33.0231C200.488 32.4692 201.144 31.813 201.838 31.059C202.038 30.8449 202.229 30.6495 202.406 30.4726C203.895 28.9042 204.961 27.5079 205.612 26.2932C206.036 25.5252 206.39 25.0319 206.664 24.8038C206.943 24.5805 207.353 24.4688 207.893 24.4688C208.493 24.4688 209.015 24.6828 209.452 25.1064C209.889 25.5299 210.108 26.0512 210.108 26.6655C210.108 27.9547 207.362 31.0776 201.87 36.0343C203.737 38.3241 205.724 40.0555 207.837 41.2237C208.098 41.3773 208.344 41.5588 208.582 41.7729C208.675 41.9963 208.721 42.2383 208.721 42.4989C208.721 43.0993 208.479 43.6299 207.995 44.086C207.511 44.5421 206.92 44.7655 206.222 44.7655C204.477 44.7655 202.019 42.6572 198.855 38.4405L198.868 38.4359Z" fill="#213A59"/>
</svg>
