<svg xmlns="http://www.w3.org/2000/svg"  viewBox="0 0 28 28" fill="none">
<path d="M27.9794 27.054H19.0747L12.3932 17.3233L4.02313 27.054H0.330078L10.7532 14.9423L0.488005 0H9.39263L15.7097 9.19618L23.6182 0H27.3112L17.3497 11.5772L27.9915 27.054H27.9794ZM19.6579 25.9485H25.8899L15.9527 11.4922L24.9059 1.08119H24.1162L15.6004 10.982L8.79737 1.08119H2.56535L12.1381 15.003L2.72327 25.9485H3.5129L12.4904 15.5132L19.6579 25.9485ZM24.918 25.4383H20.1316L3.5129 1.67645H8.29929L24.918 25.4383ZM20.7026 24.345H22.8042L7.72833 2.78194H5.62669L20.7026 24.345Z" fill="currentColor"/>
</svg>