<svg xmlns="http://www.w3.org/2000/svg" viewBox="0 0 28 35" fill="none">
  <path d="M18.5435 5.43126C19.1759 4.68941 19.6582 3.82771 19.9625 2.89566C20.2669 1.9636 20.3873 0.979547 20.3169 0C18.3751 0.15951 16.5726 1.0889 15.2978 2.58794C14.6873 3.30639 14.2246 4.14219 13.9373 5.04587C13.6499 5.94954 13.5436 6.90271 13.6247 7.84894C14.5719 7.85697 15.5082 7.64309 16.3611 7.22385C17.2141 6.80461 17.9608 6.19125 18.5435 5.43126ZM22.7595 18.0985C22.7707 16.7939 23.1084 15.5137 23.7407 14.3787C24.373 13.2437 25.279 12.2914 26.3733 11.6117C25.6827 10.599 24.7697 9.76407 23.7069 9.173C22.644 8.58193 21.4604 8.25101 20.25 8.20648C17.64 7.93407 15.2308 9.75584 13.8422 9.75584C12.4536 9.75584 10.4961 8.24053 8.3212 8.27459C6.89933 8.32225 5.51388 8.74413 4.29997 9.49906C3.08606 10.254 2.08513 11.3162 1.39483 12.5821C-1.54972 17.7921 0.641962 25.5388 3.58651 29.7442C4.92494 31.8044 6.59797 34.1369 8.80638 34.0518C11.0148 33.9667 11.7342 32.6557 14.2939 32.6557C16.8537 32.6557 17.64 34.0518 19.815 34.0007C21.9899 33.9496 23.5291 31.8895 24.9345 29.8294C25.93 28.3337 26.7076 26.6993 27.2432 24.977C25.9173 24.4015 24.7861 23.4434 23.9893 22.221C23.1924 20.9986 22.7649 19.5654 22.7595 18.0985Z" fill="currentColor"/>
</svg>