<svg xmlns="http://www.w3.org/2000/svg" viewBox="0 0 28 28" fill="none">
  <path d="M9.33447 14C9.33447 11.4228 11.4232 9.33296 14.0006 9.33296C16.5779 9.33296 18.6678 11.4228 18.6678 14C18.6678 16.5772 16.5779 18.667 14.0006 18.667C11.4232 18.667 9.33447 16.5772 9.33447 14ZM6.81142 14C6.81142 17.9704 10.03 21.1889 14.0006 21.1889C17.9712 21.1889 21.1897 17.9704 21.1897 14C21.1897 10.0296 17.9712 6.81115 14.0006 6.81115C10.03 6.81115 6.81142 10.0296 6.81142 14ZM19.7942 6.52617C19.7942 7.45347 20.5462 8.20662 21.4747 8.20662C22.402 8.20662 23.1552 7.45347 23.1552 6.52617C23.1552 5.59887 22.4032 4.84685 21.4747 4.84685C20.5462 4.84685 19.7942 5.59887 19.7942 6.52617ZM8.34379 25.3956C6.9788 25.3334 6.23692 25.1061 5.74385 24.9139C5.09019 24.6595 4.62426 24.3564 4.13345 23.8667C3.64377 23.3771 3.33955 22.9111 3.08623 22.2575C2.89398 21.7645 2.66667 21.0226 2.60447 19.6577C2.53661 18.1819 2.52304 17.7386 2.52304 14C2.52304 10.2614 2.53774 9.81922 2.60447 8.34233C2.66667 6.97738 2.89511 6.23667 3.08623 5.74249C3.34068 5.08885 3.64377 4.62294 4.13345 4.13215C4.62313 3.64249 5.08906 3.33829 5.74385 3.08498C6.23692 2.89273 6.9788 2.66543 8.34379 2.60323C9.81962 2.53538 10.2629 2.52181 14.0006 2.52181C17.7393 2.52181 18.1815 2.53651 19.6585 2.60323C21.0235 2.66543 21.7642 2.89386 22.2584 3.08498C22.9121 3.33829 23.378 3.64249 23.8688 4.13215C24.3585 4.62181 24.6616 5.08885 24.916 5.74249C25.1083 6.23554 25.3356 6.97738 25.3978 8.34233C25.4657 9.81922 25.4792 10.2614 25.4792 14C25.4792 17.7375 25.4657 18.1808 25.3978 19.6577C25.3356 21.0226 25.1072 21.7645 24.916 22.2575C24.6616 22.9111 24.3585 23.3771 23.8688 23.8667C23.3791 24.3564 22.9121 24.6595 22.2584 24.9139C21.7653 25.1061 21.0235 25.3334 19.6585 25.3956C18.1826 25.4635 17.7393 25.4771 14.0006 25.4771C10.2629 25.4771 9.81962 25.4635 8.34379 25.3956ZM8.22844 0.0848142C6.73791 0.152666 5.7201 0.389015 4.83008 0.735057C3.90953 1.09241 3.12921 1.57189 2.35001 2.34992C1.57195 3.12795 1.09245 3.90824 0.735086 4.82989C0.38903 5.71987 0.152672 6.73764 0.0848176 8.22811C0.0158326 9.72084 0 10.1981 0 14C0 17.8019 0.0158326 18.2792 0.0848176 19.7719C0.152672 21.2624 0.38903 22.2801 0.735086 23.1701C1.09245 24.0906 1.57082 24.8721 2.35001 25.6501C3.12807 26.4281 3.9084 26.9065 4.83008 27.2649C5.72123 27.611 6.73791 27.8473 8.22844 27.9152C9.72236 27.983 10.1985 28 14.0006 28C17.8038 28 18.2799 27.9842 19.7727 27.9152C21.2632 27.8473 22.281 27.611 23.171 27.2649C24.0916 26.9065 24.8719 26.4281 25.6511 25.6501C26.4292 24.8721 26.9075 24.0906 27.266 23.1701C27.6121 22.2801 27.8496 21.2624 27.9163 19.7719C27.9842 18.278 28 17.8019 28 14C28 10.1981 27.9842 9.72084 27.9163 8.22811C27.8485 6.73764 27.6121 5.71987 27.266 4.82989C26.9075 3.90937 26.4292 3.12908 25.6511 2.34992C24.8731 1.57189 24.0916 1.09241 23.1722 0.735057C22.281 0.389015 21.2632 0.151535 19.7738 0.0848142C18.281 0.0169628 17.8038 0 14.0017 0C10.1985 0 9.72236 0.015832 8.22844 0.0848142Z" fill="currentColor"/>
</svg>