<svg xmlns="http://www.w3.org/2000/svg" viewBox="0 0 36 31" fill="none">
  <path d="M20.8249 6.52979V14.3338L22.7661 15.9862L33.876 6.52979H20.8249ZM33.8251 23.8103L25.5244 16.8828L23.5668 18.5491C23.1112 18.9369 22.4213 18.9371 21.9654 18.5491L20.8249 17.5782V23.8103H33.8251V23.8103ZM27.4334 15.258L35.9949 22.4033L36.0007 7.9657L27.4334 15.258ZM9.20716 11.7645C7.37216 11.7645 6.55078 13.4877 6.55078 15.1954C6.55078 17.1603 7.65132 18.5864 9.16754 18.5864C10.6839 18.5864 11.7845 17.1437 11.7845 15.1558C11.7845 13.9828 11.2458 11.7645 9.20716 11.7645Z" fill="currentColor"/>
  <path d="M18.3534 0L0.000153846 2.64538L0 27.7048L18.3536 30.3523V30.3522L18.3559 30.3524L18.3534 0ZM9.08782 20.4744C6.21513 20.4744 4.20883 18.328 4.20883 15.2548C4.20883 12.0883 6.28013 9.87681 9.24597 9.87681C12.1302 9.87681 14.1446 12.0231 14.1446 15.0964C14.1446 18.7914 11.5233 20.4744 9.08782 20.4744Z" fill="currentColor"/>
</svg>