<svg viewBox="0 0 264 61" fill="none" xmlns="http://www.w3.org/2000/svg">
<path d="M80.8034 48.0464V48.9778H78.4196V56.7938H77.2797V48.9778H74.8828V48.0464H80.8034Z" fill="white"/>
<path d="M87.024 50.1257C87.4408 50.3471 87.773 50.6793 88.0075 51.1222C88.2485 51.5651 88.3657 52.1057 88.3657 52.7375V56.7888H87.2389V52.9004C87.2389 52.2165 87.0696 51.6889 86.7244 51.3241C86.3791 50.9594 85.9102 50.777 85.3175 50.777C84.7248 50.777 84.2363 50.9659 83.878 51.3437C83.5198 51.7215 83.3439 52.2686 83.3439 52.985V56.7888H82.2041V47.5073H83.3439V50.8943C83.5719 50.5425 83.8845 50.269 84.2753 50.0801C84.6727 49.8912 85.1156 49.7935 85.6106 49.7935C86.1316 49.7935 86.5941 49.9042 87.0175 50.1257H87.024Z" fill="white"/>
<path d="M96.474 53.7839H90.9768C91.0158 54.4612 91.2503 54.9888 91.6737 55.3731C92.097 55.7509 92.6116 55.9463 93.2108 55.9463C93.7058 55.9463 94.1162 55.829 94.4484 55.6011C94.7805 55.3731 95.0085 55.0605 95.1453 54.6762H96.3763C96.1939 55.334 95.8227 55.8746 95.2756 56.285C94.7219 56.7018 94.038 56.9037 93.2173 56.9037C92.566 56.9037 91.9798 56.7604 91.4653 56.4673C90.9507 56.1742 90.5469 55.7574 90.2538 55.2168C89.9607 54.6762 89.8174 54.0509 89.8174 53.341C89.8174 52.631 89.9607 52.0057 90.2473 51.4716C90.5338 50.9375 90.9312 50.5272 91.4457 50.2341C91.9603 49.9475 92.553 49.8042 93.2173 49.8042C93.8817 49.8042 94.4484 49.9475 94.9499 50.2276C95.4514 50.5077 95.8357 50.905 96.1093 51.4C96.3828 51.895 96.5196 52.4616 96.5196 53.0869C96.5196 53.3019 96.5066 53.5363 96.4805 53.7773L96.474 53.7839ZM95.0411 51.7322C94.8457 51.4195 94.5851 51.1785 94.2595 51.0157C93.9273 50.8529 93.5625 50.7682 93.1587 50.7682C92.579 50.7682 92.0905 50.9506 91.6867 51.3218C91.2829 51.6931 91.0484 52.2011 90.9898 52.8525H95.3342C95.3342 52.4161 95.2365 52.0448 95.0476 51.7322H95.0411Z" fill="white"/>
<path d="M103.534 50.1986C103.984 49.9381 104.498 49.8078 105.078 49.8078C105.697 49.8078 106.25 49.9511 106.745 50.2442C107.24 50.5373 107.625 50.9477 107.911 51.4818C108.198 52.0158 108.341 52.6281 108.341 53.3315C108.341 54.035 108.198 54.6472 107.911 55.1878C107.625 55.735 107.234 56.1518 106.739 56.4579C106.244 56.7576 105.69 56.9074 105.078 56.9074C104.466 56.9074 103.964 56.7771 103.515 56.5166C103.065 56.256 102.733 55.9238 102.505 55.5265V56.7966H101.365V47.5151H102.505V51.2017C102.74 50.7913 103.085 50.4592 103.534 50.1986ZM106.856 51.9768C106.648 51.5925 106.367 51.2994 106.009 51.0975C105.651 50.8956 105.26 50.7979 104.837 50.7979C104.413 50.7979 104.029 50.9021 103.677 51.104C103.319 51.3124 103.039 51.6055 102.824 51.9963C102.609 52.3871 102.505 52.8365 102.505 53.3446C102.505 53.8526 102.609 54.3151 102.824 54.7059C103.039 55.0967 103.319 55.3898 103.677 55.5982C104.036 55.8066 104.42 55.9043 104.837 55.9043C105.254 55.9043 105.651 55.8001 106.009 55.5982C106.367 55.3963 106.648 55.0967 106.856 54.7059C107.064 54.3151 107.169 53.8591 107.169 53.3315C107.169 52.804 107.064 52.3611 106.856 51.9768Z" fill="white"/>
<path d="M116.079 53.7839H110.582C110.621 54.4612 110.855 54.9888 111.279 55.3731C111.702 55.7509 112.21 55.9463 112.816 55.9463C113.311 55.9463 113.721 55.829 114.054 55.6011C114.386 55.3731 114.614 55.0605 114.75 54.6762H115.981C115.799 55.334 115.428 55.8746 114.874 56.285C114.321 56.7018 113.637 56.9037 112.816 56.9037C112.165 56.9037 111.578 56.7604 111.064 56.4673C110.549 56.1742 110.146 55.7574 109.852 55.2168C109.559 54.6762 109.416 54.0509 109.416 53.341C109.416 52.631 109.559 52.0057 109.839 51.4716C110.126 50.9375 110.523 50.5272 111.038 50.2341C111.552 49.9475 112.145 49.8042 112.816 49.8042C113.487 49.8042 114.047 49.9475 114.549 50.2276C115.05 50.5142 115.441 50.905 115.708 51.4C115.975 51.895 116.118 52.4616 116.118 53.0869C116.118 53.3019 116.105 53.5363 116.079 53.7773V53.7839ZM114.653 51.7322C114.464 51.4195 114.197 51.1785 113.871 51.0157C113.539 50.8529 113.174 50.7682 112.77 50.7682C112.191 50.7682 111.702 50.9506 111.298 51.3218C110.895 51.6931 110.66 52.2011 110.601 52.8525H114.939C114.939 52.4161 114.842 52.0448 114.653 51.7322Z" fill="white"/>
<path d="M118.639 56.638C118.222 56.4556 117.89 56.2081 117.649 55.8824C117.408 55.5633 117.271 55.192 117.245 54.7752H118.424C118.457 55.1204 118.619 55.4005 118.906 55.6154C119.193 55.8303 119.57 55.9411 120.039 55.9411C120.476 55.9411 120.814 55.8434 121.068 55.6545C121.322 55.4656 121.446 55.2181 121.446 54.925C121.446 54.6319 121.309 54.4039 121.042 54.2541C120.775 54.1108 120.358 53.961 119.798 53.8177C119.29 53.6809 118.873 53.5507 118.548 53.4139C118.229 53.2771 117.949 53.0687 117.721 52.8016C117.493 52.5281 117.375 52.1698 117.375 51.7269C117.375 51.3752 117.48 51.0561 117.688 50.763C117.896 50.4699 118.196 50.2419 118.58 50.066C118.965 49.8902 119.401 49.812 119.896 49.812C120.658 49.812 121.27 50.0009 121.739 50.3852C122.208 50.7695 122.456 51.297 122.495 51.9679H121.355C121.329 51.6097 121.186 51.3166 120.925 51.1017C120.665 50.8867 120.306 50.776 119.863 50.776C119.453 50.776 119.127 50.8607 118.886 51.0365C118.645 51.2124 118.522 51.4403 118.522 51.7269C118.522 51.9549 118.593 52.1373 118.743 52.2871C118.886 52.4369 119.075 52.5541 119.297 52.6388C119.518 52.7235 119.824 52.8277 120.222 52.9319C120.717 53.0687 121.114 53.1989 121.427 53.3292C121.733 53.4595 122 53.6549 122.221 53.9089C122.443 54.1694 122.56 54.5081 122.567 54.925C122.567 55.3028 122.462 55.6414 122.254 55.9411C122.045 56.2407 121.752 56.4817 121.368 56.651C120.99 56.8204 120.547 56.905 120.059 56.905C119.531 56.905 119.062 56.8138 118.639 56.638Z" fill="white"/>
<path d="M125.563 50.8588V54.9101C125.563 55.2423 125.635 55.4833 125.778 55.62C125.922 55.7568 126.169 55.8284 126.521 55.8284H127.361V56.7924H126.332C125.694 56.7924 125.218 56.6491 124.899 56.356C124.58 56.0629 124.424 55.5809 124.424 54.9166V50.8653H123.531V49.9274H124.424V48.1948H125.563V49.9274H127.355V50.8653H125.563V50.8588Z" fill="white"/>
<path d="M141.247 49.9136L139.104 56.7851H137.925L136.27 51.327L134.616 56.7851H133.437L131.281 49.9136H132.447L134.03 55.6844L135.736 49.9136H136.902L138.57 55.6974L140.126 49.9136H141.253H141.247Z" fill="white"/>
<path d="M142.373 51.4781C142.66 50.9506 143.051 50.5337 143.546 50.2406C144.041 49.9475 144.594 49.8042 145.207 49.8042C145.819 49.8042 146.333 49.9345 146.776 50.195C147.219 50.4555 147.551 50.7812 147.766 51.172V49.9149H148.919V56.7865H147.766V55.5099C147.538 55.9137 147.206 56.2459 146.757 56.5064C146.307 56.7735 145.786 56.9037 145.194 56.9037C144.601 56.9037 144.028 56.7539 143.539 56.4543C143.044 56.1547 142.653 55.7313 142.373 55.1842C142.087 54.6436 141.943 54.0248 141.943 53.3279C141.943 52.631 142.087 52.0057 142.373 51.4781ZM147.454 51.9862C147.245 51.6019 146.965 51.3088 146.607 51.1004C146.249 50.8985 145.858 50.7942 145.435 50.7942C145.011 50.7942 144.62 50.8919 144.269 51.0938C143.917 51.2958 143.637 51.5889 143.428 51.9731C143.22 52.3574 143.116 52.8068 143.116 53.3279C143.116 53.849 143.22 54.3114 143.428 54.7022C143.637 55.093 143.917 55.3861 144.269 55.5946C144.62 55.7965 145.011 55.9007 145.435 55.9007C145.858 55.9007 146.249 55.7965 146.607 55.5946C146.959 55.3926 147.245 55.093 147.454 54.7022C147.662 54.3114 147.766 53.862 147.766 53.341C147.766 52.8199 147.662 52.3705 147.454 51.9862Z" fill="white"/>
<path d="M156.774 49.9201L152.632 60.0288H151.453L152.808 56.7135L150.033 49.9136H151.303L153.459 55.4825L155.589 49.9136H156.768L156.774 49.9201Z" fill="white"/>
<path d="M162.663 50.8588V54.9101C162.663 55.2423 162.735 55.4833 162.878 55.62C163.021 55.7568 163.269 55.8284 163.62 55.8284H164.461V56.7924H163.432C162.793 56.7924 162.318 56.6491 161.999 56.356C161.68 56.0629 161.523 55.5809 161.523 54.9166V50.8653H160.631V49.9274H161.523V48.1948H162.663V49.9274H164.454V50.8653H162.663V50.8588Z" fill="white"/>
<path d="M167.078 56.4673C166.557 56.1742 166.147 55.7574 165.847 55.2168C165.548 54.6762 165.404 54.0509 165.404 53.341C165.404 52.631 165.554 52.0187 165.86 51.4781C166.166 50.9375 166.583 50.5272 167.111 50.2341C167.638 49.9475 168.225 49.8042 168.882 49.8042C169.54 49.8042 170.126 49.9475 170.648 50.2341C171.169 50.5207 171.592 50.9375 171.898 51.4716C172.204 52.0057 172.354 52.631 172.354 53.341C172.354 54.0509 172.198 54.6762 171.885 55.2168C171.572 55.7574 171.149 56.1742 170.608 56.4673C170.068 56.7604 169.482 56.9037 168.824 56.9037C168.166 56.9037 167.599 56.7604 167.072 56.4673H167.078ZM169.983 55.6141C170.341 55.4187 170.635 55.1321 170.856 54.7478C171.077 54.3635 171.188 53.8946 171.188 53.341C171.188 52.7873 171.077 52.3184 170.862 51.9341C170.648 51.5498 170.361 51.2632 170.009 51.0743C169.658 50.8854 169.28 50.7942 168.869 50.7942C168.459 50.7942 168.068 50.8854 167.723 51.0743C167.378 51.2632 167.098 51.5498 166.889 51.9341C166.681 52.3184 166.577 52.7873 166.577 53.341C166.577 53.8946 166.681 54.3766 166.883 54.7609C167.085 55.1451 167.358 55.4317 167.704 55.6206C168.049 55.8095 168.42 55.9007 168.83 55.9007C169.241 55.9007 169.625 55.803 169.983 55.6141Z" fill="white"/>
<path d="M178.601 50.8588V54.9101C178.601 55.2423 178.672 55.4833 178.815 55.62C178.959 55.7568 179.206 55.8284 179.558 55.8284H180.398V56.7924H179.369C178.731 56.7924 178.255 56.6491 177.936 56.356C177.617 56.0629 177.461 55.5809 177.461 54.9166V50.8653H176.568V49.9274H177.461V48.1948H178.601V49.9274H180.392V50.8653H178.601V50.8588Z" fill="white"/>
<path d="M183.024 56.4673C182.502 56.1742 182.092 55.7574 181.793 55.2168C181.493 54.6762 181.35 54.0509 181.35 53.341C181.35 52.631 181.499 52.0187 181.806 51.4781C182.112 50.9375 182.529 50.5272 183.056 50.2341C183.584 49.9475 184.17 49.8042 184.828 49.8042C185.486 49.8042 186.072 49.9475 186.593 50.2341C187.114 50.5207 187.537 50.9375 187.843 51.4716C188.15 52.0057 188.299 52.631 188.299 53.341C188.299 54.0509 188.143 54.6762 187.83 55.2168C187.518 55.7574 187.094 56.1742 186.554 56.4673C186.013 56.7604 185.427 56.9037 184.769 56.9037C184.111 56.9037 183.545 56.7604 183.017 56.4673H183.024ZM185.928 55.6141C186.287 55.4187 186.58 55.1321 186.801 54.7478C187.023 54.3635 187.133 53.8946 187.133 53.341C187.133 52.7873 187.023 52.3184 186.808 51.9341C186.593 51.5498 186.306 51.2632 185.955 51.0743C185.603 50.8854 185.225 50.7942 184.815 50.7942C184.404 50.7942 184.014 50.8854 183.668 51.0743C183.323 51.2632 183.043 51.5498 182.835 51.9341C182.626 52.3184 182.522 52.7873 182.522 53.341C182.522 53.8946 182.626 54.3766 182.828 54.7609C183.03 55.1451 183.304 55.4317 183.649 55.6206C183.994 55.8095 184.365 55.9007 184.776 55.9007C185.186 55.9007 185.57 55.803 185.928 55.6141Z" fill="white"/>
<path d="M195.907 49.9136V56.7851H194.767V55.7691C194.552 56.1208 194.246 56.3943 193.855 56.5897C193.465 56.7851 193.035 56.8828 192.572 56.8828C192.038 56.8828 191.556 56.7721 191.133 56.5507C190.709 56.3292 190.371 55.997 190.123 55.5541C189.876 55.1112 189.752 54.5706 189.752 53.9388V49.9136H190.879V53.789C190.879 54.4664 191.048 54.9875 191.393 55.3522C191.739 55.717 192.207 55.8993 192.8 55.8993C193.393 55.8993 193.894 55.7104 194.246 55.3327C194.598 54.9549 194.774 54.4078 194.774 53.6913V49.9136H195.914H195.907Z" fill="white"/>
<path d="M199.834 50.1221C200.205 49.9071 200.661 49.7964 201.195 49.7964V50.9753H200.895C199.619 50.9753 198.974 51.6722 198.974 53.0596V56.7982H197.834V49.9267H198.974V51.0404C199.176 50.6496 199.462 50.3435 199.834 50.1221Z" fill="white"/>
<path d="M207.261 50.8588V54.9101C207.261 55.2423 207.332 55.4833 207.476 55.62C207.619 55.7568 207.866 55.8284 208.218 55.8284H209.058V56.7924H208.029C207.391 56.7924 206.915 56.6491 206.596 56.356C206.277 56.0629 206.121 55.5809 206.121 54.9166V50.8653H205.229V49.9274H206.121V48.1948H207.261V49.9274H209.052V50.8653H207.261V50.8588Z" fill="white"/>
<path d="M215.252 50.1257C215.668 50.3471 216.001 50.6793 216.235 51.1222C216.476 51.5651 216.593 52.1057 216.593 52.7375V56.7888H215.466V52.9004C215.466 52.2165 215.297 51.6889 214.952 51.3241C214.607 50.9594 214.138 50.777 213.545 50.777C212.952 50.777 212.464 50.9659 212.106 51.3437C211.747 51.7215 211.571 52.2686 211.571 52.985V56.7888H210.432V47.5073H211.571V50.8943C211.799 50.5425 212.106 50.269 212.509 50.0801C212.907 49.8912 213.35 49.7935 213.845 49.7935C214.366 49.7935 214.828 49.9042 215.252 50.1257Z" fill="white"/>
<path d="M224.695 53.7839H219.198C219.237 54.4612 219.472 54.9888 219.895 55.3731C220.318 55.7509 220.833 55.9463 221.432 55.9463C221.927 55.9463 222.338 55.829 222.67 55.6011C223.002 55.3731 223.23 55.0605 223.367 54.6762H224.598C224.415 55.334 224.044 55.8746 223.49 56.285C222.937 56.7018 222.253 56.9037 221.432 56.9037C220.781 56.9037 220.195 56.7604 219.68 56.4673C219.166 56.1742 218.762 55.7574 218.469 55.2168C218.176 54.6762 218.032 54.0509 218.032 53.341C218.032 52.631 218.176 52.0057 218.462 51.4716C218.749 50.9375 219.146 50.5272 219.661 50.2341C220.175 49.941 220.768 49.8042 221.439 49.8042C222.11 49.8042 222.67 49.9475 223.171 50.2276C223.673 50.5142 224.057 50.905 224.331 51.4C224.604 51.895 224.741 52.4616 224.741 53.0869C224.741 53.3019 224.728 53.5363 224.702 53.7773L224.695 53.7839ZM223.262 51.7322C223.067 51.4195 222.806 51.1785 222.481 51.0157C222.149 50.8529 221.784 50.7682 221.38 50.7682C220.8 50.7682 220.312 50.9506 219.908 51.3218C219.504 51.6931 219.27 52.2011 219.211 52.8525H223.549C223.549 52.4161 223.451 52.0448 223.262 51.7322Z" fill="white"/>
<path d="M233.984 50.195C234.433 50.4555 234.766 50.7812 234.98 51.172V49.9149H236.133V56.9428C236.133 57.5681 235.997 58.1282 235.73 58.6167C235.462 59.1052 235.078 59.4895 234.583 59.7631C234.088 60.0366 233.508 60.1734 232.844 60.1734C231.939 60.1734 231.19 59.9585 230.584 59.5351C229.985 59.1118 229.627 58.5256 229.516 57.7895H230.643C230.766 58.2064 231.027 58.5451 231.418 58.7991C231.808 59.0531 232.284 59.1834 232.838 59.1834C233.463 59.1834 233.977 58.988 234.375 58.5907C234.772 58.1999 234.967 57.6463 234.967 56.9363V55.4969C234.739 55.9007 234.407 56.2329 233.964 56.4999C233.521 56.7669 233 56.9037 232.408 56.9037C231.815 56.9037 231.242 56.7539 230.747 56.4543C230.252 56.1547 229.854 55.7313 229.574 55.1842C229.288 54.6436 229.145 54.0248 229.145 53.3279C229.145 52.631 229.288 52.0057 229.574 51.4781C229.861 50.9506 230.252 50.5337 230.747 50.2406C231.242 49.9475 231.795 49.8042 232.408 49.8042C233.02 49.8042 233.521 49.9345 233.971 50.195H233.984ZM234.668 51.9862C234.459 51.6019 234.179 51.3088 233.821 51.1004C233.463 50.8985 233.072 50.7942 232.649 50.7942C232.225 50.7942 231.835 50.8919 231.483 51.0938C231.131 51.2958 230.851 51.5889 230.643 51.9731C230.434 52.3574 230.33 52.8068 230.33 53.3279C230.33 53.849 230.434 54.3114 230.643 54.7022C230.851 55.093 231.131 55.3861 231.483 55.5946C231.835 55.803 232.225 55.9007 232.649 55.9007C233.072 55.9007 233.463 55.7965 233.821 55.5946C234.179 55.3926 234.459 55.093 234.668 54.7022C234.876 54.3114 234.98 53.862 234.98 53.341C234.98 52.8199 234.876 52.3705 234.668 51.9862Z" fill="white"/>
<path d="M239.207 47.5073V56.7888H238.067V47.5073H239.207Z" fill="white"/>
<path d="M242.399 56.4673C241.877 56.1742 241.467 55.7574 241.168 55.2168C240.868 54.6762 240.725 54.0509 240.725 53.341C240.725 52.631 240.874 52.0187 241.181 51.4781C241.487 50.9375 241.904 50.5272 242.431 50.2341C242.959 49.941 243.545 49.8042 244.203 49.8042C244.861 49.8042 245.447 49.9475 245.974 50.2341C246.502 50.5207 246.919 50.9375 247.225 51.4716C247.531 52.0057 247.681 52.631 247.681 53.341C247.681 54.0509 247.525 54.6762 247.212 55.2168C246.899 55.7574 246.476 56.1742 245.935 56.4673C245.401 56.7604 244.808 56.9037 244.157 56.9037C243.506 56.9037 242.933 56.7604 242.405 56.4673H242.399ZM245.303 55.6141C245.662 55.4187 245.955 55.1321 246.176 54.7478C246.398 54.3635 246.508 53.8946 246.508 53.341C246.508 52.7873 246.398 52.3184 246.183 51.9341C245.968 51.5498 245.681 51.2632 245.33 51.0743C244.978 50.8854 244.6 50.7942 244.19 50.7942C243.779 50.7942 243.389 50.8854 243.043 51.0743C242.698 51.2632 242.418 51.5498 242.21 51.9341C242.001 52.3184 241.897 52.7873 241.897 53.341C241.897 53.8946 242.001 54.3766 242.203 54.7609C242.405 55.1451 242.685 55.4317 243.024 55.6206C243.363 55.8095 243.74 55.9007 244.151 55.9007C244.561 55.9007 244.945 55.803 245.303 55.6141Z" fill="white"/>
<path d="M251.354 50.1986C251.804 49.9381 252.318 49.8078 252.898 49.8078C253.517 49.8078 254.071 49.9511 254.566 50.2442C255.061 50.5373 255.445 50.9477 255.731 51.4818C256.018 52.0158 256.155 52.6281 256.155 53.3315C256.155 54.035 256.012 54.6472 255.731 55.1878C255.445 55.735 255.054 56.1518 254.559 56.4579C254.064 56.7576 253.504 56.9074 252.898 56.9074C252.292 56.9074 251.784 56.7771 251.335 56.5166C250.886 56.256 250.553 55.9238 250.325 55.5265V56.7966H249.186V47.5151H250.325V51.2017C250.56 50.7913 250.899 50.4592 251.354 50.1986ZM254.676 51.9768C254.468 51.5925 254.181 51.2994 253.83 51.0975C253.471 50.8956 253.081 50.7979 252.657 50.7979C252.234 50.7979 251.85 50.9021 251.498 51.104C251.14 51.3124 250.859 51.6055 250.645 51.9963C250.43 52.3871 250.325 52.8365 250.325 53.3446C250.325 53.8526 250.43 54.3151 250.645 54.7059C250.859 55.0967 251.14 55.3898 251.498 55.5982C251.85 55.8001 252.24 55.9043 252.657 55.9043C253.074 55.9043 253.471 55.8001 253.83 55.5982C254.181 55.3963 254.468 55.0967 254.676 54.7059C254.885 54.3151 254.989 53.8591 254.989 53.3315C254.989 52.804 254.885 52.3611 254.676 51.9768Z" fill="white"/>
<path d="M263.899 53.7839H258.402C258.441 54.4612 258.676 54.9888 259.099 55.3731C259.522 55.7509 260.031 55.9463 260.636 55.9463C261.131 55.9463 261.542 55.829 261.874 55.6011C262.206 55.3731 262.434 55.0605 262.571 54.6762H263.802C263.619 55.334 263.248 55.8746 262.695 56.285C262.141 56.7018 261.457 56.9037 260.636 56.9037C259.985 56.9037 259.399 56.7604 258.884 56.4673C258.37 56.1742 257.966 55.7574 257.673 55.2168C257.38 54.6762 257.236 54.0509 257.236 53.341C257.236 52.631 257.38 52.0057 257.666 51.4716C257.953 50.9375 258.35 50.5272 258.865 50.2341C259.379 49.9475 259.972 49.8042 260.643 49.8042C261.314 49.8042 261.874 49.9475 262.375 50.2276C262.877 50.5142 263.261 50.905 263.535 51.4C263.808 51.895 263.939 52.4616 263.939 53.0869C263.939 53.3019 263.926 53.5363 263.899 53.7773V53.7839ZM262.467 51.7322C262.271 51.4195 262.011 51.1785 261.685 51.0157C261.353 50.8529 260.988 50.7682 260.584 50.7682C260.011 50.7682 259.516 50.9506 259.112 51.3218C258.708 51.6931 258.474 52.2011 258.415 52.8525H262.753C262.753 52.4161 262.655 52.0448 262.467 51.7322Z" fill="white"/>
<path d="M84.6005 14.9842C84.5076 15.065 84.4268 15.2951 84.3542 15.6746C84.2815 16.0542 84.0756 17.8146 83.7324 20.9599C83.3892 24.1052 83.2196 26.6207 83.2196 28.5063C83.2196 29.2855 83.3125 30.1536 83.4941 31.1186C83.5466 31.264 83.5709 31.4255 83.5709 31.6112C83.5709 32.1644 83.4094 32.661 83.0863 33.1011C82.7633 33.5412 82.3515 33.7633 81.8508 33.7633C81.5117 33.7633 81.0837 33.5977 80.5669 33.2626C80.05 32.9315 79.7391 32.3622 79.6382 31.5628C79.5373 30.7633 79.4848 29.7256 79.4848 28.4417C79.4848 26.6893 79.6907 24.085 80.0985 20.6207C80.5063 17.1605 80.7526 15.392 80.8374 15.3193C80.5507 15.3193 79.404 15.396 77.3973 15.5495C75.3785 15.7029 74.2076 15.7796 73.8805 15.7796C72.8267 15.7796 72.0918 15.6423 71.684 15.3718C71.2762 15.1013 71.0703 14.6733 71.0703 14.0878C71.0703 13.567 71.2883 13.1673 71.7244 12.8887C72.1605 12.6141 73.2628 12.4728 75.0353 12.4728C77.9868 12.4728 80.8778 12.279 83.7162 11.8873C86.914 11.3947 89.3366 11.1484 90.984 11.1484C92.8292 11.1484 93.9476 11.3665 94.3473 11.8025C94.7471 12.2386 94.9449 12.6706 94.9449 13.1027C94.9449 14.0959 94.5048 14.5925 93.6246 14.5925C93.3379 14.5925 92.8776 14.5602 92.2397 14.4997C91.5937 14.4472 90.8427 14.423 89.9826 14.423C87.3905 14.423 85.5978 14.6087 84.6045 14.9761L84.6005 14.9842Z" fill="white"/>
<path d="M97.1051 25.5859L97.3676 25.0934C98.6071 22.6021 99.9396 20.5833 101.369 19.0328C102.798 17.4824 104.195 16.7031 105.556 16.7031C106.602 16.7031 107.454 16.9898 108.116 17.5631C108.778 18.1365 109.105 18.8189 109.105 19.6062C109.105 20.0988 108.992 20.5187 108.766 20.874C108.54 21.2293 108.229 21.4029 107.829 21.4029C107.195 21.4029 106.614 21.1405 106.093 20.6196C105.726 20.2805 105.431 20.1109 105.217 20.1109C104.45 20.1109 103.162 21.306 101.361 23.6923C99.556 26.0785 98.4739 28.7636 98.1024 31.7434C97.9894 32.6034 97.739 33.205 97.3474 33.5482C96.9598 33.8914 96.4308 34.061 95.7646 34.061C95.058 34.061 94.5574 33.6572 94.2586 32.8537C93.9598 32.0502 93.8145 30.7339 93.8145 28.913C93.8145 28.166 93.8346 27.1566 93.875 25.8847C93.9154 24.6856 94.0325 23.2199 94.2303 21.4918C94.2828 21.0396 94.3151 20.6883 94.3393 20.4299C94.4322 19.4245 94.5372 18.7381 94.6543 18.3626C94.7714 17.9871 95.0459 17.6399 95.478 17.3088C95.91 16.9817 96.3864 16.8162 96.9073 16.8162C97.4604 16.8162 97.8804 16.9736 98.167 17.2926C98.4537 17.6116 98.5991 17.9588 98.5991 18.3384C98.5991 18.8189 98.3689 19.8202 97.9086 21.3343C97.7431 21.8552 97.6058 22.481 97.4927 23.2078L97.1092 25.5738L97.1051 25.5859Z" fill="white"/>
<path d="M110.627 23.0047V23.0209C110.954 21.1555 111.119 20.0895 111.119 19.823C111.119 19.064 111.285 18.4301 111.62 17.9173C111.951 17.4045 112.416 17.1501 113.009 17.1501C113.708 17.1501 114.249 17.3157 114.636 17.6427C115.024 17.9698 115.222 18.3412 115.222 18.749C115.222 19.1568 115.032 20.0047 114.652 21.2847L114.56 21.6238C113.994 23.6023 113.659 25.2133 113.546 26.465C113.433 27.7166 113.376 28.722 113.376 29.4932C113.376 30.119 113.486 30.9548 113.7 31.9965C113.732 32.1823 113.744 32.3357 113.744 32.4568C113.744 32.691 113.522 33.01 113.074 33.4097C112.63 33.8094 112.149 34.0073 111.636 34.0073C110.284 34.0073 109.609 32.9817 109.609 30.9346C109.609 29.1944 109.856 27.0747 110.348 24.5754C110.449 24.0222 110.542 23.5013 110.623 23.0087L110.627 23.0047ZM118.048 10.3749C118.048 11.1017 117.721 11.7397 117.063 12.2888C116.409 12.8379 115.839 13.1125 115.359 13.1125C114.745 13.1125 114.2 12.8581 113.724 12.3453C113.247 11.8325 113.009 11.3198 113.009 10.807C113.009 10.0681 113.243 9.47455 113.716 9.0183C114.188 8.56205 114.862 8.33594 115.743 8.33594C116.429 8.33594 116.986 8.53782 117.41 8.94158C117.834 9.34535 118.048 9.82583 118.048 10.379V10.3749Z" fill="white"/>
<path d="M122.138 32.1148C121.965 32.8335 121.791 33.9197 121.617 35.3732L120.879 41.4135C120.757 42.3987 120.519 43.077 120.164 43.4566C119.809 43.8361 119.377 44.0259 118.864 44.0259C118.403 44.0259 117.963 43.8523 117.551 43.5131C117.136 43.1699 116.93 42.7904 116.93 42.3705C116.93 41.5387 117.059 40.5818 117.313 39.4957C118.839 33.3988 119.675 27.0759 119.817 20.5187V20.2119C119.817 18.8391 119.853 17.9266 119.934 17.4703C120.01 17.014 120.232 16.6143 120.596 16.263C120.959 15.9158 121.472 15.7422 122.138 15.7422C123.257 15.7422 123.814 16.5982 123.814 18.3061C123.814 19.0046 123.685 20.1876 123.43 21.8552L123.277 22.9171C124.444 20.9709 125.833 19.3559 127.44 18.0679C129.047 16.7839 130.488 16.1379 131.756 16.1379C132.903 16.1379 133.88 16.5497 134.683 17.3653C135.487 18.185 135.89 19.2146 135.89 20.4541C135.89 23.7609 134.606 26.773 132.043 29.4823C129.475 32.1916 126.939 33.5482 124.428 33.5482C123.241 33.5482 122.477 33.0718 122.138 32.1189V32.1148ZM131.158 19.6224C129.907 19.6224 128.288 20.8417 126.297 23.2805C124.306 25.7192 123.309 27.6331 123.309 29.026C123.309 29.3854 123.487 29.7044 123.838 29.987C124.193 30.2696 124.605 30.411 125.074 30.411C126.374 30.411 127.868 29.3894 129.551 27.3464C131.235 25.3033 132.079 23.3289 132.079 21.4232C132.079 20.7892 131.982 20.329 131.788 20.0463C131.594 19.7637 131.384 19.6224 131.158 19.6224Z" fill="white"/>
<path d="M141.681 33.0589C141.689 32.3846 141.285 30.927 140.465 28.6942C138.818 24.2811 137.99 21.1357 137.99 19.2582C137.99 17.5786 138.652 16.7387 139.973 16.7387C141.293 16.7387 141.907 17.5059 141.907 19.0442C141.907 20.0294 141.931 20.7279 141.975 21.1398C142.02 21.5516 142.181 22.3067 142.452 23.3968C142.722 24.487 142.993 25.3955 143.259 26.1222C143.413 26.5623 143.599 27.1357 143.813 27.8423C143.934 28.2824 144.043 28.5892 144.136 28.7629C144.196 28.67 144.41 28.2703 144.782 27.5637C144.996 27.1316 145.722 25.9123 146.962 23.8975C148.201 21.8827 149.292 20.2798 150.228 19.0806C151.165 17.8814 151.864 17.1506 152.324 16.8841C152.784 16.6176 153.273 16.4844 153.786 16.4844C154.298 16.4844 154.755 16.658 155.098 17.0052C155.441 17.3525 155.611 17.7805 155.611 18.2811C155.611 18.8747 155.178 19.4601 154.318 20.0335C153.479 20.6068 152.332 21.919 150.886 23.9661C149.437 26.0132 147.878 28.5933 146.207 31.6942C145.266 33.4667 144.418 34.351 143.671 34.351C143.025 34.351 142.359 33.9149 141.673 33.0468L141.681 33.0589Z" fill="white"/>
<path d="M169.726 27.925C169.726 28.9909 168.83 30.2628 167.037 31.7446C165.244 33.2264 163.222 33.9653 160.969 33.9653C159.236 33.9653 157.876 33.4202 156.882 32.3301C155.889 31.2399 155.393 29.7218 155.393 27.7756C155.393 24.9089 156.406 22.2198 158.433 19.7084C160.46 17.197 162.628 15.9453 164.934 15.9453C166.08 15.9453 167.001 16.3087 167.699 17.0355C168.394 17.7623 168.745 18.6303 168.745 19.6317C168.745 21.4123 167.889 23.1121 166.177 24.7272C164.465 26.3422 162.273 27.4526 159.6 28.0704C159.293 28.143 159.14 28.3247 159.14 28.6235C159.14 29.1161 159.358 29.5845 159.794 30.0286C160.23 30.4728 160.811 30.6989 161.538 30.6989C163.597 30.6989 165.64 29.637 167.667 27.5172C168.055 27.1094 168.434 26.9035 168.806 26.9035C169.419 26.9035 169.726 27.2467 169.726 27.9331V27.925ZM159.414 25.2036C161.033 24.8766 162.458 24.1861 163.694 23.1283C164.929 22.0745 165.547 21.1135 165.547 20.2535C165.547 19.9143 165.454 19.6317 165.265 19.4015C165.075 19.1714 164.833 19.0543 164.534 19.0543C163.641 19.0543 162.652 19.7084 161.57 21.0206C160.484 22.3329 159.765 23.7258 159.418 25.1996L159.414 25.2036Z" fill="white"/>
<path d="M177.79 27.9373C175.965 29.6492 174.673 31.4258 173.902 33.271C173.575 34.0382 173.227 34.6236 172.856 35.0233C171.964 34.9709 171.31 34.7892 170.89 34.4783C170.47 34.1674 170.26 33.6506 170.26 32.9359C170.26 32.302 170.534 31.5146 171.083 30.5779C171.633 29.6412 172.993 28.1715 175.161 26.1769C175.489 25.87 175.767 25.6035 175.989 25.3774C174.031 22.5107 173.054 20.2698 173.054 18.6628C173.054 16.971 173.797 16.1272 175.283 16.1272C176.316 16.1272 176.869 16.8863 176.942 18.4004C177.003 19.9589 177.576 21.5699 178.662 23.2415C179.195 22.761 179.764 22.1917 180.366 21.5376C180.54 21.3519 180.705 21.1823 180.859 21.0289C182.151 19.6682 183.075 18.4569 183.641 17.4031C184.008 16.7369 184.315 16.3089 184.553 16.111C184.795 15.9172 185.151 15.8203 185.619 15.8203C186.14 15.8203 186.592 16.006 186.972 16.3735C187.351 16.7409 187.541 17.1931 187.541 17.7261C187.541 18.8445 185.159 21.5538 180.394 25.8539C182.013 27.8404 183.737 29.3424 185.571 30.3558C185.797 30.4891 186.011 30.6465 186.217 30.8323C186.297 31.0261 186.338 31.236 186.338 31.4622C186.338 31.983 186.128 32.4433 185.708 32.839C185.288 33.2347 184.775 33.4285 184.169 33.4285C182.655 33.4285 180.523 31.5994 177.778 27.9413L177.79 27.9373Z" fill="white"/>
<path d="M64.1517 19.1088C60.4951 18.0572 53.5948 16.3353 47.5618 16.3353C47.457 16.3353 47.3521 16.3385 47.2505 16.3385C38.4314 16.4338 30.5653 18.2923 26.6641 19.3915L26.7308 19.293L26.6736 19.3089C28.9769 15.9922 33.7422 9.65742 39.3463 5.20338C41.6814 3.35124 45.0711 2.27744 47.5046 1.70242L48.0384 1.55311C48.804 1.3752 49.1916 1.25447 49.6586 1.17188C50.7229 2.60467 57.1561 11.1887 64.1517 19.1056V19.1088Z" fill="white"/>
<path d="M4.4093 22.0382C5.31472 19.179 6.0613 16.1101 6.62997 14.3342L7.48456 14.0705C7.70059 14.007 7.88167 13.9625 8.06911 13.9339C8.35821 13.8894 8.66955 13.8672 8.99995 13.8672C11.3064 13.8672 15.538 15.0045 22.7465 20.2877L22.4987 20.364L22.54 20.3862C19.1438 21.5839 11.8465 24.4146 6.61091 28.2904C4.14562 30.1139 1.83918 32.6936 0.266602 34.6252C1.25145 31.731 2.93839 26.6988 4.4093 22.035V22.0382Z" fill="white"/>
<path d="M22.4987 20.3672L22.54 20.3894C19.1438 21.5871 11.8465 24.4177 6.61091 28.2936C4.14562 30.1171 1.83918 32.6968 0.266602 34.6283C1.25145 31.7342 2.93839 26.7019 4.4093 22.0382C5.31472 19.179 6.0613 16.1101 6.62997 14.3342L7.48456 14.0705C7.70059 14.007 7.88167 13.9625 8.06911 13.9339C8.35821 13.8894 8.66955 13.8672 8.99995 13.8672C11.3064 13.8672 15.538 15.0045 22.7465 20.2877L22.4987 20.364V20.3672Z" fill="white"/>
<path d="M0 37.7504L0.498776 37.096C1.88391 35.2629 4.65101 31.8573 7.62143 29.6557C12.3614 26.1483 18.9789 23.4861 22.4386 22.2344C20.1544 25.675 15.6463 32.8643 13.2954 39.2468C11.2431 44.8254 10.2201 51.6018 9.7722 55.4872C8.44107 51.9767 5.16567 44.1837 0.00317638 37.7536L0 37.7504Z" fill="white"/>
<path d="M22.4422 22.2344C20.158 25.675 15.65 32.8643 13.2991 39.2468C11.2468 44.8254 10.2238 51.6018 9.77586 55.4872C8.44473 51.9767 5.16933 44.1837 0.00683594 37.7536L0.505612 37.0992C1.89075 35.2661 4.65784 31.8604 7.62826 29.6588C12.3682 26.1515 18.9857 23.4893 22.4454 22.2376L22.4422 22.2344Z" fill="white"/>
<path d="M56.7747 46.3011C54.1506 47.1271 46.5228 50.2405 37.2176 60.4098C36.0294 57.3346 32.5698 48.274 30.7875 42.6763C28.6812 36.0651 26.6417 26.3406 25.8379 22.3281C28.9894 24.2216 36.2836 28.7646 42.0624 33.5522C46.8564 37.5265 53.7281 43.5944 56.7779 46.3011H56.7747Z" fill="white"/>
<path d="M64.8504 20.7874C63.6654 23.5767 59.78 33.333 57.9088 45.0336C54.2808 41.8122 47.8125 36.1192 43.1488 32.2465C37.2811 27.3827 30.0536 22.8778 26.6797 20.8541C30.2601 19.8216 38.2977 17.8329 47.2661 17.7376C47.3805 17.7344 47.4917 17.7344 47.606 17.7344C54.0266 17.7344 61.6576 19.8248 64.6407 20.7239L64.8535 20.7874H64.8504Z" fill="white"/>
<path d="M11.8538 57.3252C11.66 57.3252 11.4694 57.3284 11.2852 57.3315L11.3233 56.9566C11.641 53.8655 12.6226 46.0122 14.8941 39.8299C17.2895 33.3236 21.9501 26.0039 24.1707 22.7031L24.1803 22.7571H24.1834C25.0666 27.1413 27.0617 36.564 29.168 43.1815C30.9376 48.7411 34.3432 57.6746 35.5854 60.896C31.9034 60.0859 18.8081 57.322 11.8538 57.322V57.3252Z" fill="white"/>
<path d="M35.5854 60.8992C31.9034 60.0891 18.8081 57.3252 11.8538 57.3252C11.66 57.3252 11.4694 57.3284 11.2852 57.3315L11.3233 56.9567C11.641 53.8655 12.6226 46.0122 14.8941 39.8299C17.2895 33.3236 21.9501 26.0039 24.1707 22.7031L24.1803 22.7571H24.1834C25.0666 27.1413 27.0617 36.564 29.168 43.1815C30.9376 48.7411 34.3432 57.6746 35.5854 60.896V60.8992Z" fill="white"/>
<path d="M46.6345 0.406646C46.6345 0.406646 46.6313 0.403469 46.6281 0.406646C45.872 0.457476 45.1127 0.489245 44.3662 0.511484H44.363C43.7657 0.524191 43.1716 0.530545 42.5807 0.530545C37.4341 0.530545 32.7037 0 29.0534 0C27.5889 0 26.3022 0.0825998 25.2284 0.324046H25.2252L24.6216 1.40737C24.0148 2.49706 22.8902 6.29347 25.0696 18.334C25.114 18.5818 25.1617 18.8296 25.2062 19.0806C25.2125 19.1314 25.2221 19.1791 25.2316 19.2299C27.1949 16.323 32.44 9.0288 38.6858 4.06645C41.1956 2.07453 44.7982 0.949898 47.2635 0.365346C47.0538 0.38123 46.8442 0.397115 46.6345 0.409822V0.406646Z" fill="white"/>
<path d="M23.3949 18.6622C17.4509 14.3512 12.6188 12.1686 9.01304 12.1686C8.62863 12.1686 8.25376 12.194 7.9043 12.248C9.40698 10.8248 12.2186 9.22043 15.5861 6.92352C18.1054 5.20163 20.3006 3.02226 22.731 1.46875C21.9145 3.79743 21.5777 8.63588 23.3981 18.6622H23.3949Z" fill="white"/>
</svg>
