<svg viewBox="0 0 32 22" fill="none" xmlns="http://www.w3.org/2000/svg">
    <path d="M30.3111 8.96875H1.68889C0.756141 8.96875 0 9.73167 0 10.6728V10.8521C0 11.7933 0.756141 12.5562 1.68889 12.5562H30.3111C31.2439 12.5562 32 11.7933 32 10.8521V10.6728C32 9.73167 31.2439 8.96875 30.3111 8.96875Z" fill="currentColor"/>
    <path d="M30.3111 17.9375H1.68889C0.756141 17.9375 0 18.7004 0 19.6415V19.8209C0 20.762 0.756141 21.5249 1.68889 21.5249H30.3111C31.2439 21.5249 32 20.762 32 19.8209V19.6415C32 18.7004 31.2439 17.9375 30.3111 17.9375Z" fill="currentColor"/>
    <path d="M30.3111 0H1.68889C0.756141 0 0 0.762917 0 1.70402V1.8834C0 2.8245 0.756141 3.58742 1.68889 3.58742H30.3111C31.2439 3.58742 32 2.8245 32 1.8834V1.70402C32 0.762917 31.2439 0 30.3111 0Z" fill="currentColor"/>
</svg>
