<svg viewBox="0 0 26 21" fill="none" xmlns="http://www.w3.org/2000/svg">
    <path d="M24.0187 0.627319L1.18125 0.627319C0.86796 0.627319 0.567506 0.751772 0.345979 0.973298C0.124452 1.19482 0 1.49528 0 1.80857L0 15.196C0 15.5093 0.124452 15.8098 0.345979 16.0313C0.567506 16.2528 0.86796 16.3773 1.18125 16.3773H1.37812L1.37812 17.1648C1.37812 17.4781 1.50257 17.7785 1.7241 18C1.94563 18.2216 2.24608 18.346 2.55937 18.346H2.75624V19.1335C2.75624 19.4468 2.88069 19.7472 3.10222 19.9688C3.32375 20.1903 3.6242 20.3148 3.93749 20.3148H21.2624C21.5757 20.3148 21.8762 20.1903 22.0977 19.9688C22.3192 19.7472 22.4437 19.4468 22.4437 19.1335V18.346H22.6406C22.9538 18.346 23.2543 18.2216 23.4758 18C23.6973 17.7785 23.8218 17.4781 23.8218 17.1648V16.3773H24.0187C24.332 16.3773 24.6324 16.2528 24.8539 16.0313C25.0755 15.8098 25.1999 15.5093 25.1999 15.196V1.80857C25.1999 1.49528 25.0755 1.19482 24.8539 0.973298C24.6324 0.751772 24.332 0.627319 24.0187 0.627319ZM21.6562 19.1335C21.6562 19.2379 21.6147 19.3381 21.5409 19.4119C21.467 19.4858 21.3669 19.5273 21.2624 19.5273H3.93749C3.83306 19.5273 3.73291 19.4858 3.65906 19.4119C3.58522 19.3381 3.54374 19.2379 3.54374 19.1335V18.346H21.6562V19.1335ZM23.0343 17.1648C23.0343 17.2692 22.9928 17.3693 22.919 17.4432C22.8451 17.517 22.745 17.5585 22.6406 17.5585H2.55937C2.45494 17.5585 2.35479 17.517 2.28094 17.4432C2.2071 17.3693 2.16562 17.2692 2.16562 17.1648V16.3773H23.0343V17.1648ZM24.4124 15.196C24.4124 15.3005 24.3709 15.4006 24.2971 15.4744C24.2233 15.5483 24.1231 15.5898 24.0187 15.5898L1.18125 15.5898C1.07682 15.5898 0.976666 15.5483 0.902824 15.4744C0.828982 15.4006 0.787497 15.3005 0.787497 15.196L0.787497 1.80857C0.787497 1.70414 0.828982 1.60399 0.902824 1.53014C0.976666 1.4563 1.07682 1.41482 1.18125 1.41482L24.0187 1.41482C24.1231 1.41482 24.2233 1.4563 24.2971 1.53014C24.3709 1.60399 24.4124 1.70414 24.4124 1.80857V15.196Z" fill="currentColor"/>
    <path d="M22.0495 6.14137C21.423 6.14137 20.8221 5.89247 20.379 5.44942C19.936 5.00636 19.6871 4.40545 19.6871 3.77888C19.6871 3.67445 19.6456 3.5743 19.5717 3.50046C19.4979 3.42662 19.3977 3.38513 19.2933 3.38513L5.90585 3.38513C5.80142 3.38513 5.70127 3.42662 5.62743 3.50046C5.55358 3.5743 5.5121 3.67445 5.5121 3.77888C5.5121 4.40545 5.2632 5.00636 4.82014 5.44942C4.37709 5.89247 3.77618 6.14137 3.14961 6.14137C3.04518 6.14137 2.94503 6.18286 2.87119 6.2567C2.79734 6.33054 2.75586 6.43069 2.75586 6.53512V10.4726C2.75586 10.577 2.79734 10.6772 2.87119 10.751C2.94503 10.8249 3.04518 10.8664 3.14961 10.8664C3.77618 10.8664 4.37709 11.1153 4.82014 11.5583C5.2632 12.0014 5.5121 12.6023 5.5121 13.2289C5.5121 13.3333 5.55358 13.4334 5.62743 13.5073C5.70127 13.5811 5.80142 13.6226 5.90585 13.6226L19.2933 13.6226C19.3977 13.6226 19.4979 13.5811 19.5717 13.5073C19.6456 13.4334 19.6871 13.3333 19.6871 13.2289C19.6871 12.6023 19.936 12.0014 20.379 11.5583C20.8221 11.1153 21.423 10.8664 22.0495 10.8664C22.154 10.8664 22.2541 10.8249 22.328 10.751C22.4018 10.6772 22.4433 10.577 22.4433 10.4726V6.53512C22.4433 6.43069 22.4018 6.33054 22.328 6.2567C22.2541 6.18286 22.154 6.14137 22.0495 6.14137ZM21.6558 10.1025C20.9615 10.1897 20.316 10.5057 19.8212 11.0005C19.3264 11.4953 19.0104 12.1408 18.9232 12.8351L6.27597 12.8351C6.18872 12.1408 5.87275 11.4953 5.37795 11.0005C4.88314 10.5057 4.23766 10.1897 3.54336 10.1025L3.54336 6.90525C4.23766 6.81799 4.88314 6.50203 5.37795 6.00722C5.87275 5.51241 6.18872 4.86693 6.27597 4.17263L18.9232 4.17263C19.0104 4.86693 19.3264 5.51241 19.8212 6.00722C20.316 6.50203 20.9615 6.81799 21.6558 6.90525V10.1025Z" fill="currentColor"/>
    <path d="M12.6004 4.95544C11.8995 4.95544 11.2144 5.16328 10.6316 5.55267C10.0488 5.94206 9.59461 6.49552 9.32639 7.14305C9.05818 7.79059 8.988 8.50311 9.12473 9.19053C9.26147 9.87795 9.59898 10.5094 10.0946 11.005C10.5902 11.5006 11.2216 11.8381 11.909 11.9748C12.5964 12.1116 13.309 12.0414 13.9565 11.7732C14.604 11.505 15.1575 11.0507 15.5469 10.468C15.9363 9.88521 16.1441 9.20007 16.1441 8.49918C16.1441 7.55932 15.7708 6.65796 15.1062 5.99338C14.4416 5.3288 13.5402 4.95544 12.6004 4.95544ZM12.6004 11.2554C12.0552 11.2554 11.5224 11.0938 11.0691 10.7909C10.6158 10.4881 10.2626 10.0576 10.0539 9.55395C9.84533 9.05031 9.79075 8.49612 9.8971 7.96147C10.0035 7.42681 10.266 6.93569 10.6514 6.55023C11.0369 6.16476 11.528 5.90225 12.0627 5.7959C12.5973 5.68955 13.1515 5.74413 13.6551 5.95275C14.1588 6.16136 14.5893 6.51464 14.8921 6.9679C15.195 7.42116 15.3566 7.95405 15.3566 8.49918C15.3566 9.23018 15.0662 9.93124 14.5493 10.4481C14.0324 10.965 13.3314 11.2554 12.6004 11.2554Z" fill="currentColor"/>
</svg>
