<svg viewBox="0 0 21 17" fill="none" xmlns="http://www.w3.org/2000/svg">
    <g>
        <path d="M11.5926 2.15747C12.0422 0.663306 13.4531 -0.272871 14.7393 0.0712206C15.3759 0.244816 15.8812 0.694305 16.1634 1.34219C16.4357 1.96527 16.4652 2.69995 16.252 3.40984C15.8648 4.69631 14.7689 5.56738 13.65 5.56738C13.4695 5.56738 13.2858 5.54258 13.1053 5.49609C11.8223 5.14889 11.1431 3.65473 11.5926 2.15747ZM20.8686 7.34364C20.6685 8.00702 20.2616 8.57741 19.7202 8.9463C19.3199 9.22219 18.8769 9.36479 18.4405 9.36479C18.2634 9.36479 18.0894 9.33999 17.9188 9.29349C17.3216 9.1354 16.8459 8.71071 16.5801 8.10312C16.3274 7.52034 16.2979 6.83525 16.4981 6.16877C16.9181 4.7676 18.2404 3.89343 19.4479 4.21582C20.0451 4.37701 20.5208 4.8017 20.7866 5.40929C21.0393 5.99207 21.0688 6.67716 20.8686 7.34364ZM4.74803 3.40984C4.53475 2.69995 4.56428 1.96527 4.83662 1.34219C5.11881 0.694305 5.62412 0.244816 6.26067 0.0712206C7.54691 -0.272871 8.95783 0.663306 9.40736 2.15747C9.85688 3.65473 9.17767 5.14889 7.89472 5.49609C7.71425 5.54258 7.5305 5.56738 7.35004 5.56738C6.23114 5.56738 5.13521 4.69631 4.74803 3.40984ZM18.3257 13.0351C18.6013 14.3681 18.2535 15.5522 17.3676 16.2838C16.7967 16.7581 16.0551 16.9999 15.2348 16.9999C14.7656 16.9999 14.2668 16.9193 13.7615 16.7581C12.7739 16.445 11.7075 16.29 10.5 16.29C9.29251 16.29 8.22612 16.445 7.23847 16.7581C5.84724 17.2014 4.53147 17.0309 3.63242 16.2838C2.74649 15.5522 2.39868 14.3681 2.6743 13.0351C3.13696 10.8156 5.57818 8.67971 7.54691 7.27854C8.39346 6.70816 9.28923 6.39816 10.2277 6.34856V6.33926H10.5C10.5033 6.33926 10.5033 6.33926 10.5066 6.33926H10.6312C10.7067 6.34236 10.7658 6.33926 10.7756 6.33926V6.34856C11.7469 6.40126 12.6689 6.72056 13.4531 7.27854C15.4218 8.67971 17.863 10.8156 18.3257 13.0351ZM3.08117 9.29349C2.91055 9.33999 2.73665 9.36479 2.55946 9.36479C2.12306 9.36479 1.6801 9.22219 1.27979 8.9463C0.738388 8.57741 0.331517 8.00702 0.131363 7.34364C-0.0687911 6.67716 -0.0392602 5.99207 0.213393 5.40929C0.479172 4.8017 0.954948 4.37701 1.55213 4.21582C2.75962 3.89343 4.08195 4.7676 4.50194 6.16877C4.70209 6.83525 4.67256 7.52034 4.41991 8.10312C4.15413 8.71071 3.67836 9.1354 3.08117 9.29349Z" 
        fill="currentColor"/>
    </g>
</svg>
