<svg viewBox="0 0 35 12" fill="none" xmlns="http://www.w3.org/2000/svg">
    <path d="M25.0017 7.43053C25.341 7.43053 25.6726 7.32993 25.9547 7.14146C26.2367 6.95298 26.4566 6.6851 26.5864 6.37167C26.7162 6.05825 26.7502 5.71336 26.684 5.38064C26.6178 5.04791 26.4545 4.74227 26.2146 4.50239C25.9747 4.26251 25.6691 4.09914 25.3363 4.03296C25.0036 3.96678 24.6587 4.00074 24.3453 4.13057C24.0319 4.26039 23.764 4.48024 23.5755 4.76232C23.387 5.04439 23.2864 5.37602 23.2864 5.71527C23.2864 6.17018 23.4672 6.60647 23.7888 6.92814C24.1105 7.24982 24.5468 7.43053 25.0017 7.43053ZM27.5746 11.2899C27.6883 11.2899 27.7974 11.2447 27.8778 11.1643C27.9583 11.0839 28.0034 10.9748 28.0034 10.8611C28.0034 10.065 27.6872 9.30146 27.1242 8.73853C26.5613 8.1756 25.7978 7.85935 25.0017 7.85935C24.2056 7.85935 23.4421 8.1756 22.8792 8.73853C22.3163 9.30146 22 10.065 22 10.8611C22 10.9748 22.0452 11.0839 22.1256 11.1643C22.206 11.2447 22.3151 11.2899 22.4288 11.2899H27.5746Z" fill="currentColor"/>
    <path d="M32.0017 7.43053C32.341 7.43053 32.6726 7.32993 32.9547 7.14146C33.2367 6.95298 33.4566 6.6851 33.5864 6.37167C33.7162 6.05825 33.7502 5.71336 33.684 5.38064C33.6178 5.04791 33.4545 4.74227 33.2146 4.50239C32.9747 4.26251 32.6691 4.09914 32.3363 4.03296C32.0036 3.96678 31.6587 4.00074 31.3453 4.13057C31.0319 4.26039 30.764 4.48024 30.5755 4.76232C30.387 5.04439 30.2864 5.37602 30.2864 5.71527C30.2864 6.17018 30.4672 6.60647 30.7888 6.92814C31.1105 7.24982 31.5468 7.43053 32.0017 7.43053ZM34.5746 11.2899C34.6883 11.2899 34.7974 11.2447 34.8778 11.1643C34.9583 11.0839 35.0034 10.9748 35.0034 10.8611C35.0034 10.065 34.6872 9.30146 34.1242 8.73853C33.5613 8.1756 32.7978 7.85935 32.0017 7.85935C31.2056 7.85935 30.4421 8.1756 29.8792 8.73853C29.3163 9.30146 29 10.065 29 10.8611C29 10.9748 29.0452 11.0839 29.1256 11.1643C29.206 11.2447 29.3151 11.2899 29.4288 11.2899H34.5746Z" fill="currentColor"/>
    <path d="M4.70418 5.37621C5.23584 5.37621 5.75556 5.21855 6.19761 4.92318C6.63967 4.62781 6.98421 4.20798 7.18767 3.7168C7.39112 3.22561 7.44436 2.68512 7.34063 2.16368C7.23691 1.64224 6.9809 1.16327 6.60496 0.787328C6.22902 0.41139 5.75005 0.155373 5.2286 0.0516524C4.70716 -0.0520687 4.16668 0.0011647 3.67549 0.204621C3.1843 0.408077 2.76448 0.752618 2.46911 1.19467C2.17373 1.63673 2.01608 2.15645 2.01608 2.6881C2.01608 3.40103 2.29929 4.08476 2.80341 4.58888C3.30752 5.093 3.99125 5.37621 4.70418 5.37621ZM8.73634 11.4244C8.91457 11.4244 9.0855 11.3536 9.21153 11.2276C9.33756 11.1016 9.40836 10.9306 9.40836 10.7524C9.40836 9.50479 8.91274 8.30826 8.03054 7.42606C7.14833 6.54385 5.95181 6.04823 4.70418 6.04823C3.45655 6.04823 2.26003 6.54385 1.37782 7.42606C0.495618 8.30826 1.85911e-08 9.50479 0 10.7524C0 10.9306 0.0708027 11.1016 0.196832 11.2276C0.322861 11.3536 0.493794 11.4244 0.672026 11.4244H8.73634Z" fill="currentColor"/>
    <path d="M14.7042 5.37621C15.2358 5.37621 15.7556 5.21855 16.1976 4.92318C16.6397 4.62781 16.9842 4.20798 17.1877 3.7168C17.3911 3.22561 17.4444 2.68512 17.3406 2.16368C17.2369 1.64224 16.9809 1.16327 16.605 0.787328C16.229 0.41139 15.75 0.155373 15.2286 0.0516524C14.7072 -0.0520687 14.1667 0.0011647 13.6755 0.204621C13.1843 0.408077 12.7645 0.752618 12.4691 1.19467C12.1737 1.63673 12.0161 2.15645 12.0161 2.6881C12.0161 3.40103 12.2993 4.08476 12.8034 4.58888C13.3075 5.093 13.9913 5.37621 14.7042 5.37621ZM18.7363 11.4244C18.9146 11.4244 19.0855 11.3536 19.2115 11.2276C19.3376 11.1016 19.4084 10.9306 19.4084 10.7524C19.4084 9.50479 18.9127 8.30826 18.0305 7.42606C17.1483 6.54385 15.9518 6.04823 14.7042 6.04823C13.4566 6.04823 12.26 6.54385 11.3778 7.42606C10.4956 8.30826 10 9.50479 10 10.7524C10 10.9306 10.0708 11.1016 10.1968 11.2276C10.3229 11.3536 10.4938 11.4244 10.672 11.4244H18.7363Z" fill="currentColor"/>
</svg>
