<svg viewBox="0 0 45 45" fill="none" xmlns="http://www.w3.org/2000/svg">
    <circle cx="22.0563" cy="22.1657" r="23.3657" fill="currentBackground" stroke="none"/>
    <path d="M26.2593 23.6504C25.6389 23.6543 25.0272 23.7885 24.4681 24.0434C23.9089 24.2983 23.4162 24.6676 23.0254 25.1247L17.6706 22.7837C17.9224 22.0522 17.9224 21.2638 17.6706 20.5323L23.0254 18.1913C23.6571 18.9145 24.5377 19.4028 25.5119 19.5699C26.486 19.737 27.4911 19.5723 28.3497 19.1047C29.2083 18.6372 29.8652 17.8969 30.2045 17.0146C30.5439 16.1322 30.5438 15.1645 30.2043 14.2823C29.8648 13.4 29.2077 12.6598 28.349 12.1924C27.4903 11.7251 26.4852 11.5605 25.5111 11.7278C24.537 11.8951 23.6565 12.3835 23.0249 13.1068C22.3934 13.8301 22.0514 14.7418 22.0594 15.681C22.0626 15.9183 22.0872 16.1549 22.1329 16.3883L16.5892 18.809C15.9981 18.2606 15.2497 17.89 14.4376 17.7435C13.6255 17.597 12.7859 17.6811 12.024 17.9853C11.2621 18.2895 10.6117 18.8002 10.1544 19.4535C9.69707 20.1069 9.45312 20.8737 9.45312 21.658C9.45312 22.4423 9.69707 23.2092 10.1544 23.8625C10.6117 24.5158 11.2621 25.0266 12.024 25.3308C12.7859 25.635 13.6255 25.7191 14.4376 25.5725C15.2497 25.426 15.9981 25.0554 16.5892 24.5071L22.1329 26.9278C22.0872 27.1611 22.0626 27.3977 22.0594 27.6351C22.0594 28.4232 22.3058 29.1936 22.7672 29.8488C23.2287 30.5041 23.8847 31.0148 24.6521 31.3164C25.4195 31.618 26.2639 31.6969 27.0786 31.5432C27.8933 31.3894 28.6417 31.0099 29.229 30.4527C29.8164 29.8954 30.2164 29.1854 30.3784 28.4124C30.5405 27.6395 30.4573 26.8383 30.1394 26.1102C29.8215 25.3821 29.2832 24.7597 28.5926 24.3219C27.9019 23.8841 27.0899 23.6504 26.2593 23.6504Z" fill="currentColor"/>
</svg>
