<svg xmlns="http://www.w3.org/2000/svg" viewBox="0 0 21 14" fill="none">
  <path fill-rule="evenodd" clip-rule="evenodd" d="M18.9364 6.64231C17.7765 7.87055 14.3665 11.0708 10.3329 11.0708C8.59619 11.0708 6.97757 10.4638 5.60657 9.68999C5.25192 9.48969 4.80133 9.61522 4.60094 9.97001C4.40092 10.3248 4.52638 10.7753 4.88103 10.9755C6.46091 11.8671 8.33196 12.5471 10.3329 12.5471C15.9328 12.5471 20.4952 7.11446 20.4952 7.11446C20.7229 6.84092 20.7229 6.44371 20.4952 6.17016C20.4952 6.17016 15.9328 0.737549 10.3329 0.737549C4.73305 0.737549 0.170576 6.17016 0.170576 6.17016C-0.0571232 6.44371 -0.0571232 6.84092 0.170576 7.11446C0.170576 7.11446 0.738161 7.79918 1.72092 8.68131C1.8464 8.7939 1.97889 8.90972 2.11765 9.02793C2.42764 9.29194 2.89373 9.25447 3.15797 8.9443C3.42183 8.63413 3.38457 8.16794 3.0742 7.90393C2.94577 7.79441 2.82325 7.68711 2.707 7.5827C2.29847 7.21598 1.96891 6.88725 1.73198 6.63942C2.89447 5.40931 6.30222 2.21378 10.3329 2.21378C14.3665 2.21378 17.7765 5.41408 18.9364 6.64231Z" fill="currentColor"/>
  <path fill-rule="evenodd" clip-rule="evenodd" d="M10.333 2.9519C12.3698 2.9519 14.0234 4.60559 14.0234 6.64233C14.0234 8.67908 12.3698 10.3328 10.333 10.3328C8.29626 10.3328 6.64258 8.67908 6.64258 6.64233C6.64258 4.60559 8.29626 2.9519 10.333 2.9519ZM10.333 4.42808C9.11111 4.42808 8.11875 5.42043 8.11875 6.64233C8.11875 7.86424 9.11111 8.85659 10.333 8.85659C11.5549 8.85659 12.5473 7.86424 12.5473 6.64233C12.5473 5.42043 11.5549 4.42808 10.333 4.42808Z" fill="currentColor"/>
  <path fill-rule="evenodd" clip-rule="evenodd" d="M18.8864 1.33508L2.64854 13.1445C2.31935 13.3839 1.8573 13.3111 1.61779 12.9814C1.37791 12.6521 1.45097 12.1902 1.78053 11.9504L18.0184 0.141015C18.3476 -0.098453 18.8097 -0.0256285 19.0492 0.30405C19.289 0.633401 19.216 1.09528 18.8864 1.33508Z" fill="currentColor"/>
</svg>