<svg xmlns="http://www.w3.org/2000/svg"  viewBox="0 0 19 13" fill="none">
<path fill-rule="evenodd" clip-rule="evenodd" d="M14.9286 0.452381C14.9286 0.202531 15.1311 0 15.3809 0C16.6301 0 17.6428 1.0127 17.6428 2.2619V2.9816C17.6428 3.60954 17.3526 4.16973 16.8991 4.53534C17.6208 5.02319 18.0952 5.84901 18.0952 6.78571V8.14285C18.0952 8.3927 17.8927 8.59523 17.6428 8.59523C17.393 8.59523 17.1905 8.3927 17.1905 8.14285V6.78571C17.1905 5.78636 16.3803 4.97619 15.3809 4.97619C15.1311 4.97619 14.9286 4.77366 14.9286 4.52381C14.9286 4.27396 15.1311 4.07143 15.3809 4.07143H15.6483C16.2501 4.07143 16.7381 3.58349 16.7381 2.9816V2.2619C16.7381 1.51235 16.1305 0.904761 15.3809 0.904761C15.1311 0.904761 14.9286 0.70223 14.9286 0.452381ZM13.5714 3.16666C12.8219 3.16666 12.2143 3.77426 12.2143 4.52381V5.34632C12.2143 6.09583 12.8219 6.70347 13.5714 6.70347H14.9286C15.6781 6.70347 16.2857 7.31106 16.2857 8.06061V8.14285C16.2857 8.3927 16.0832 8.59523 15.8333 8.59523C15.5835 8.59523 15.3809 8.3927 15.3809 8.14285V8.06061C15.3809 7.81076 15.1784 7.60823 14.9286 7.60823H13.5714C12.3222 7.60823 11.3095 6.59553 11.3095 5.34632V4.52381C11.3095 3.2746 12.3222 2.2619 13.5714 2.2619C13.8213 2.2619 14.0238 2.46443 14.0238 2.71428C14.0238 2.96413 13.8213 3.16666 13.5714 3.16666ZM1.35714 9.04761C0.607615 9.04761 0 9.6552 0 10.4048V11.3095C0 12.0591 0.607615 12.6667 1.35714 12.6667H13.119C13.8686 12.6667 14.4762 12.0591 14.4762 11.3095V10.4048C14.4762 9.6552 13.8686 9.04761 13.119 9.04761H1.35714ZM0.904761 10.4048C0.904761 10.1549 1.1073 9.95237 1.35714 9.95237H13.119C13.3689 9.95237 13.5714 10.1549 13.5714 10.4048V11.3095C13.5714 11.5594 13.3689 11.7619 13.119 11.7619H1.35714C1.1073 11.7619 0.904761 11.5594 0.904761 11.3095V10.4048ZM16.2857 9.95237C16.2857 9.70252 16.0832 9.49999 15.8333 9.49999C15.5835 9.49999 15.3809 9.70252 15.3809 9.95237V11.7619C15.3809 12.0117 15.5835 12.2143 15.8333 12.2143C16.0832 12.2143 16.2857 12.0117 16.2857 11.7619V9.95237ZM18.0952 9.95237C18.0952 9.70252 17.8927 9.49999 17.6428 9.49999C17.393 9.49999 17.1905 9.70252 17.1905 9.95237V11.7619C17.1905 12.0117 17.393 12.2143 17.6428 12.2143C17.8927 12.2143 18.0952 12.0117 18.0952 11.7619V9.95237Z" fill="currentColor"/>
</svg>