<svg viewBox="0 0 26 19" fill="none" xmlns="http://www.w3.org/2000/svg">
    <path fill-rule="evenodd" clip-rule="evenodd" d="M8.12537 8.12498C6.3241 8.12498 4.86001 6.66736 4.86001 4.87498C4.86001 3.08261 6.3241 1.62499 8.12537 1.62499C9.92665 1.62499 11.3907 3.08261 11.3907 4.87498C11.3907 6.66736 9.92665 8.12498 8.12537 8.12498ZM11.1933 8.67177C11.8646 8.13721 12.3823 7.43433 12.6937 6.63467C13.0052 5.83501 13.0991 4.9671 12.9661 4.11932C12.6436 1.98813 10.8626 0.282731 8.71199 0.0341062C5.7448 -0.309581 3.22772 1.9898 3.22772 4.87498C3.22772 6.41061 3.94271 7.77883 5.05744 8.67177C2.31774 9.69633 0.317405 12.1022 0.00378583 15.3489C-0.00717948 15.4628 0.00573906 15.5777 0.0417098 15.6863C0.0776806 15.7949 0.135915 15.8948 0.21269 15.9796C0.289465 16.0644 0.38309 16.1322 0.48758 16.1788C0.592071 16.2253 0.70513 16.2496 0.819524 16.25C1.02004 16.2516 1.21392 16.1783 1.36317 16.0444C1.51242 15.9104 1.60627 15.7256 1.62632 15.526C1.95375 11.8999 4.74301 9.74998 8.12537 9.74998C11.5077 9.74998 14.297 11.8999 14.6244 15.526C14.6445 15.7256 14.7383 15.9104 14.8876 16.0444C15.0368 16.1783 15.2307 16.2516 15.4312 16.25C15.9155 16.25 16.2925 15.8291 16.2461 15.3489C15.9333 12.1022 13.933 9.69633 11.1925 8.67177" fill="currentColor"/>
    <path fill-rule="evenodd" clip-rule="evenodd" d="M20.3128 10.5623C19.0519 10.5623 18.027 9.54194 18.027 8.28727C18.027 7.03261 19.0519 6.01228 20.3128 6.01228C21.5737 6.01228 22.5985 7.03261 22.5985 8.28727C22.5985 9.54194 21.5737 10.5623 20.3128 10.5623ZM22.4603 10.945C22.9302 10.5708 23.2926 10.0788 23.5106 9.51906C23.7286 8.95929 23.7944 8.35176 23.7013 7.75831C23.4755 6.26648 22.2288 5.0727 20.7234 4.89866C18.6464 4.65808 16.8844 6.26765 16.8844 8.28727C16.8844 9.36221 17.3849 10.32 18.1652 10.945C16.2474 11.6622 14.8472 13.3463 14.6277 15.619C14.62 15.6987 14.629 15.7792 14.6542 15.8552C14.6794 15.9312 14.7201 16.0011 14.7739 16.0605C14.8276 16.1199 14.8932 16.1673 14.9663 16.1999C15.0394 16.2325 15.1186 16.2495 15.1987 16.2498C15.339 16.2509 15.4747 16.1996 15.5792 16.1058C15.6837 16.0121 15.7494 15.8827 15.7634 15.743C15.9926 13.2047 17.9451 11.6998 20.3128 11.6998C22.6804 11.6998 24.6329 13.2047 24.8621 15.743C24.8761 15.8827 24.9418 16.0121 25.0463 16.1058C25.1508 16.1996 25.2865 16.2509 25.4269 16.2498C25.7658 16.2498 26.0297 15.9552 25.9973 15.619C25.7783 13.3463 24.3781 11.6622 22.4597 10.945" fill="currentColor"/>
    <path d="M0.731445 15.8438C5.2002 18.2812 10.1564 18.4438 15.3564 15.8438" stroke="currentColor" stroke-width="1.5"/>
    <path d="M14.9502 15.8438C18.1776 16.8919 21.7571 16.9617 25.5127 15.8438" stroke="currentColor" stroke-width="1.5"/>
</svg>
