<svg viewBox="0 0 174 13" fill="none" xmlns="http://www.w3.org/2000/svg">
    <path d="M172.15 4.17775C172.15 4.17775 172.15 4.34775 172.13 4.66775C172.13 4.83775 172.1 5.03775 172.02 5.26775C171.99 5.38775 171.95 5.51775 171.91 5.64775C171.85 5.77775 171.78 5.90775 171.7 6.05775C171.39 6.61775 170.85 7.25775 170.01 7.69775C169.18 8.15775 168.12 8.46775 166.9 8.55775C165.68 8.65775 164.3 8.51775 162.89 7.99775C161.47 7.47775 160.18 6.49775 158.78 5.49775C157.39 4.48775 155.95 3.33775 154.24 2.43775C153.39 1.98775 152.46 1.62775 151.47 1.43775C150.97 1.34775 150.47 1.28775 149.95 1.31775H149.17L148.39 1.46775C146.29 1.85775 144.31 3.02775 142.42 4.39775C140.5 5.75775 138.63 7.36775 136.43 8.70775C135.32 9.35775 134.14 9.95775 132.83 10.2778C131.53 10.5677 130.12 10.6777 128.76 10.3277C126.01 9.65775 123.82 7.69775 121.61 5.94775C120.49 5.06775 119.34 4.19775 118.06 3.53775C117.74 3.37775 117.42 3.20775 117.08 3.09775C116.75 2.96775 116.41 2.83775 116.06 2.76775C115.89 2.72775 115.71 2.67775 115.54 2.63775L115 2.58775C114.64 2.55775 114.28 2.49775 113.92 2.49775C112.46 2.54775 111.01 2.91775 109.64 3.52775C108.28 4.16775 106.95 4.92775 105.68 5.81775C103.11 7.52775 100.61 9.53775 97.63 10.9077C96.14 11.5677 94.5 11.9777 92.82 11.9677L91.57 11.8377C91.15 11.7977 90.75 11.6377 90.34 11.5377C89.95 11.3877 89.55 11.2378 89.17 11.0677C88.8 10.8678 88.41 10.6978 88.06 10.4777C85.17 8.75775 82.94 6.26775 80.13 4.80775C78.73 4.08775 77.18 3.74775 75.66 3.92775C74.14 4.13775 72.73 4.82775 71.42 5.63775C70.1 6.43775 68.84 7.33775 67.49 8.09775C66.14 8.83775 64.66 9.44775 63.11 9.51775C61.57 9.61775 60.06 9.32775 58.65 8.85775C57.24 8.36775 55.94 7.69775 54.67 7.03775C52.15 5.67775 49.75 4.22775 47.2 3.42775C45.92 3.06775 44.62 2.82775 43.33 2.92775C42.05 3.01775 40.82 3.37775 39.68 3.88775C37.4 4.95775 35.46 6.47775 33.53 7.83775C31.6 9.17775 29.62 10.4478 27.45 10.9277L26.65 11.0977L25.84 11.1577C25.57 11.1877 25.3 11.1978 25.04 11.1777C24.77 11.1777 24.51 11.1577 24.25 11.1177C23.21 10.9877 22.23 10.6877 21.32 10.3077C19.5 9.53775 17.97 8.48775 16.54 7.53775C15.11 6.58775 13.79 5.66775 12.47 5.05775C11.15 4.43775 9.85 4.08775 8.66 3.91775C6.28 3.57775 4.37 4.13775 3.37 4.90775C2.34 5.65775 2.04 6.30775 2 6.26775C2 6.26775 2.08 6.12775 2.27 5.85775C2.36 5.71775 2.48 5.55775 2.66 5.38775C2.83 5.20775 3.02 5.00775 3.29 4.82775C4.29 4.00775 6.24 3.40775 8.67 3.71775C9.88 3.86775 11.21 4.21775 12.56 4.83775C13.92 5.44775 15.25 6.36775 16.69 7.29775C18.13 8.22775 19.66 9.25775 21.44 9.99775C22.33 10.3677 23.28 10.6477 24.29 10.7677C24.54 10.8077 24.79 10.8177 25.05 10.8277C25.31 10.8477 25.56 10.8278 25.82 10.8077L26.6 10.7477L27.37 10.5777C29.45 10.1077 31.38 8.85775 33.3 7.51775C35.22 6.15775 37.17 4.61775 39.51 3.50775C40.69 2.97775 41.97 2.59775 43.31 2.49775C44.66 2.38775 46.02 2.63775 47.34 3.00775C49.98 3.82775 52.4 5.28775 54.9 6.63775C56.16 7.29775 57.45 7.94775 58.81 8.41775C60.18 8.87775 61.62 9.14775 63.07 9.04775C64.53 8.97775 65.93 8.39775 67.24 7.67775C68.56 6.93775 69.81 6.03775 71.15 5.22775C72.48 4.40775 73.95 3.67775 75.58 3.44775C77.21 3.24775 78.9 3.61775 80.36 4.37775C83.29 5.89775 85.52 8.39775 88.32 10.0577C88.66 10.2778 89.03 10.4377 89.39 10.6277C89.76 10.7877 90.13 10.9377 90.5 11.0777C90.89 11.1677 91.26 11.3177 91.66 11.3577L92.84 11.4777C94.42 11.4878 95.98 11.1077 97.43 10.4677C100.32 9.13775 102.81 7.14775 105.4 5.42775C106.69 4.53775 108.04 3.75775 109.44 3.10775C110.86 2.47775 112.38 2.08775 113.92 2.03775C114.3 2.03775 114.69 2.10775 115.07 2.13775L115.64 2.19775C115.83 2.23775 116.01 2.28775 116.19 2.33775C116.56 2.41775 116.92 2.54775 117.27 2.68775C117.63 2.80775 117.96 2.98775 118.29 3.14775C119.62 3.82775 120.79 4.72775 121.91 5.61775C124.13 7.38775 126.27 9.29775 128.87 9.92775C130.15 10.2577 131.48 10.1578 132.73 9.88775C133.98 9.57775 135.13 9.00775 136.22 8.37775C138.38 7.07775 140.26 5.47775 142.2 4.11775C144.12 2.73775 146.15 1.54775 148.33 1.14775L149.14 1.00775H149.95C150.49 0.977749 151.02 1.03775 151.54 1.13775C152.57 1.33775 153.53 1.71775 154.4 2.18775C156.14 3.12775 157.58 4.28775 158.96 5.30775C160.34 6.31775 161.63 7.29775 162.98 7.80775C164.34 8.31775 165.69 8.46775 166.88 8.39775C169.28 8.27775 171.03 7.16775 171.61 6.04775C171.69 5.90775 171.76 5.77775 171.82 5.65775C171.86 5.52775 171.9 5.40775 171.94 5.28775C172.03 5.05775 172.06 4.86775 172.07 4.69775C172.11 4.37775 172.14 4.20775 172.14 4.20775L172.15 4.17775Z" fill="currentColor" stroke="currentColor" stroke-width="2"/>
</svg>
